<svg width="548" height="227" viewBox="0 0 548 227" fill="none" xmlns="http://www.w3.org/2000/svg">
<path d="M430.694 80.9977V50.711L430.441 52.574L421.068 80.9977H419.143L409.695 52.574L409.467 50.711V80.9977H405.845V36.7887H407.745L419.979 73.0421L420.08 74.6786L420.207 73.0421L432.416 36.7887H434.316V80.9977H430.694Z" fill="#06BDFF"/>
<path d="M460.382 75.9626C459.951 77.0955 459.343 78.0774 458.558 78.9334C457.798 79.7642 456.886 80.4439 455.847 80.9223C454.809 81.4006 453.72 81.6524 452.554 81.6524H450.249C449.084 81.6524 447.995 81.4006 446.956 80.9223C445.918 80.4439 445.031 79.7642 444.246 78.9334C443.486 78.1025 442.878 77.0955 442.422 75.9626C441.992 74.8297 441.764 73.6212 441.764 72.3624V58.1128C441.764 56.8288 441.992 55.6456 442.422 54.5127C442.853 53.3797 443.461 52.3979 444.246 51.5419C445.006 50.7111 445.918 50.0313 446.956 49.553C447.995 49.0746 449.084 48.8229 450.249 48.8229H452.554C453.72 48.8229 454.809 49.0746 455.847 49.553C456.886 50.0313 457.773 50.7111 458.558 51.5419C459.318 52.3727 459.926 53.3797 460.382 54.5127C460.812 55.6456 461.04 56.854 461.04 58.1128V65.5397H445.259V72.5638C445.259 73.3191 445.386 74.0492 445.665 74.7038C445.918 75.3835 446.273 75.9626 446.728 76.4409C447.184 76.9445 447.716 77.3221 448.324 77.6242C448.932 77.9011 449.591 78.0522 450.275 78.0522H452.58C453.264 78.0522 453.922 77.9011 454.53 77.6242C455.138 77.3473 455.67 76.9445 456.126 76.4409C456.582 75.9374 456.937 75.3584 457.19 74.7038C457.443 74.024 457.595 73.3191 457.595 72.5638V70.4742L461.066 71.1036V72.3624C461.066 73.6464 460.838 74.8297 460.407 75.9626H460.382ZM457.595 57.8862C457.595 57.131 457.469 56.4008 457.19 55.7463C456.937 55.0665 456.582 54.4875 456.126 54.0091C455.67 53.5056 455.138 53.128 454.53 52.8259C453.922 52.5489 453.264 52.3979 452.58 52.3979H450.275C449.591 52.3979 448.932 52.5489 448.324 52.8259C447.716 53.1028 447.184 53.5056 446.728 54.0091C446.273 54.5126 445.918 55.0917 445.665 55.7463C445.411 56.4008 445.259 57.131 445.259 57.8862V62.569H457.595V57.8862Z" fill="#06BDFF"/>
<path d="M486.067 80.9977L484.142 77.8004C483.357 78.9837 482.369 79.9152 481.179 80.5949C479.988 81.2747 478.696 81.6271 477.303 81.6271H476.442C475.277 81.6271 474.187 81.3754 473.149 80.897C472.11 80.4187 471.224 79.7389 470.438 78.9081C469.679 78.0773 469.071 77.0703 468.615 75.9374C468.184 74.8044 467.956 73.596 467.956 72.3372V58.0876C467.956 56.8036 468.184 55.6203 468.615 54.4874C469.045 53.3545 469.653 52.3726 470.438 51.5167C471.198 50.6858 472.11 50.0061 473.149 49.5277C474.187 49.0494 475.277 48.7976 476.442 48.7976H477.303C478.595 48.7976 479.785 49.0746 480.9 49.6536C482.014 50.2327 482.952 51.0383 483.737 52.0705V36.7887H487.207V80.9977H486.042H486.067ZM483.762 57.861C483.762 57.1057 483.636 56.3756 483.357 55.721C483.078 55.0665 482.749 54.4622 482.293 53.9839C481.837 53.4804 481.305 53.1027 480.697 52.8006C480.089 52.5237 479.431 52.3726 478.747 52.3726H476.442C475.758 52.3726 475.099 52.5237 474.491 52.8006C473.883 53.0776 473.351 53.4804 472.895 53.9839C472.44 54.4874 472.085 55.0665 471.832 55.721C471.578 56.3756 471.426 57.1057 471.426 57.861V72.5386C471.426 73.2939 471.553 74.024 471.832 74.6786C472.085 75.3583 472.44 75.9374 472.895 76.4157C473.351 76.9192 473.883 77.2969 474.491 77.599C475.099 77.8759 475.758 78.027 476.442 78.027H478.747C479.431 78.027 480.089 77.8759 480.697 77.599C481.305 77.322 481.837 76.9192 482.293 76.4157C482.749 75.9122 483.104 75.3331 483.357 74.6786C483.61 73.9988 483.762 73.2939 483.762 72.5386V57.861Z" fill="#06BDFF"/>
<path d="M495.009 36.7887H499.036V41.8491H495.009V36.7887ZM495.287 49.427H498.758V80.9977H495.287V49.427Z" fill="#06BDFF"/>
<path d="M524.924 80.9977L522.999 77.8507C522.213 78.9836 521.226 79.89 520.035 80.5697C518.844 81.2495 517.553 81.6019 516.159 81.6019H515.298C514.133 81.6019 513.044 81.3502 512.005 80.8719C510.967 80.3935 510.08 79.7138 509.295 78.8829C508.535 78.0521 507.927 77.0451 507.471 75.9122C507.04 74.7793 506.812 73.5708 506.812 72.312V72.0099C506.812 70.7259 507.04 69.5427 507.471 68.4097C507.902 67.2768 508.51 66.295 509.295 65.439C510.055 64.6082 510.967 63.9284 512.005 63.4501C513.044 62.9717 514.133 62.72 515.298 62.72H522.619V57.861C522.619 57.1057 522.492 56.3756 522.213 55.721C521.935 55.0665 521.606 54.4622 521.15 53.9839C520.694 53.4804 520.162 53.1027 519.554 52.8006C518.946 52.5237 518.287 52.3726 517.603 52.3726H515.577C514.893 52.3726 514.234 52.5237 513.626 52.8006C513.018 53.0776 512.487 53.4804 512.031 53.9839C511.575 54.4874 511.22 55.0665 510.967 55.721C510.713 56.4008 510.561 57.1057 510.561 57.861V58.9939L507.091 58.3645V58.0624C507.091 56.7784 507.319 55.5952 507.75 54.4622C508.18 53.3293 508.788 52.3475 509.574 51.4915C510.333 50.6607 511.245 49.9809 512.284 49.5026C513.322 49.0242 514.412 48.7725 515.577 48.7725H517.603C518.768 48.7725 519.858 49.0242 520.896 49.5026C521.935 49.9809 522.821 50.6607 523.607 51.4915C524.367 52.3223 524.974 53.3293 525.43 54.4622C525.861 55.5952 526.089 56.8036 526.089 58.0624V80.9725H524.924V80.9977ZM522.619 65.7159H515.298C514.614 65.7159 513.956 65.867 513.348 66.1439C512.74 66.4208 512.208 66.8236 511.752 67.3272C511.296 67.8307 510.941 68.4097 510.688 69.0895C510.435 69.7692 510.283 70.4742 510.283 71.2294V72.5638C510.283 73.3191 510.409 74.0492 510.688 74.7037C510.941 75.3835 511.296 75.9625 511.752 76.4409C512.208 76.9444 512.74 77.322 513.348 77.6241C513.956 77.9011 514.614 78.0521 515.298 78.0521H517.603C518.287 78.0521 518.946 77.9011 519.554 77.6241C520.162 77.3472 520.694 76.9444 521.15 76.4409C521.606 75.9374 521.96 75.3583 522.213 74.7037C522.467 74.0492 522.619 73.3191 522.619 72.5638V65.7159Z" fill="#06BDFF"/>
<path d="M24.4946 218.031C16.7435 212.316 10.7148 204.159 6.43395 193.585C2.15309 183.011 0 170.775 0 156.903C0 133.49 5.67403 109.497 16.9968 84.9504C28.3195 60.4038 42.6566 40.1371 59.9573 24.1C77.2833 8.11326 94.2295 0.1073 110.821 0.1073C117.61 0.1073 122.954 1.24022 126.88 3.48088H123.942C109.124 3.48088 93.8748 11.7638 78.1699 28.3548C62.465 44.9457 49.4451 65.59 39.085 90.3129C28.7248 115.036 23.5574 138.55 23.5574 160.856C23.5574 177.145 26.5464 190.589 32.5244 201.188C38.5024 211.762 47.4694 217.074 59.4253 217.074C75.3076 217.074 89.822 208.867 102.918 192.477C116.039 176.087 126.374 155.619 133.973 131.073C141.547 106.526 145.346 82.9363 145.346 60.2527C145.346 50.6859 144.359 41.8491 142.408 33.6921C140.432 25.535 137.418 21.4565 133.314 21.4565C129.211 21.4565 124.626 24.8805 119.535 31.7032C114.443 38.551 109.808 46.7332 105.603 56.3001C101.398 65.8418 98.5863 74.2758 97.1678 81.602C92.8869 80.4691 89.67 78.7067 87.5422 76.2647C85.3891 73.8226 84.3252 71.0281 84.3252 67.8307C84.3252 61.4612 87.1369 53.9587 92.7603 45.3485C98.3837 36.7384 105.02 29.3366 112.695 23.1433C120.371 16.95 127.058 13.8786 132.782 13.8786C140.99 13.8786 146.841 19.4173 150.311 30.4695C153.781 41.5218 155.529 54.0846 155.529 68.1328C155.529 100.157 150.083 128.228 139.191 152.296C128.299 176.364 114.747 194.768 98.5103 207.507C82.2735 220.246 66.5686 226.616 51.3956 226.616C41.2127 226.616 32.2457 223.746 24.4946 218.056" fill="#06BDFF"/>
<path d="M282.688 219.869C279.649 215.639 278.129 210.251 278.129 203.655C278.129 198.091 279.547 189.959 282.41 179.26C283.296 175.76 284.157 172.261 284.943 168.761C285.753 165.262 286.159 162.266 286.159 159.799C286.159 156.098 285.399 153.303 283.879 151.465C282.359 149.602 280.535 148.696 278.382 148.696C274.279 148.696 269.846 152.044 265.134 158.741C260.752 164.935 254.217 175.634 245.503 190.866C241.931 196.681 230.457 226.314 230.457 226.314C227.594 226.314 224.605 225.735 221.49 224.627C218.374 223.494 216.804 222.008 216.804 220.145C216.804 218.71 218.323 210.352 221.363 200.886C225.112 188.122 228.101 177.371 230.33 168.61C232.559 159.849 233.674 152.397 233.674 146.229C233.674 138.399 231.445 134.497 226.986 134.497C221.996 134.497 215.512 139.129 207.583 148.394C199.63 157.659 191.828 169.34 184.153 183.439C176.477 197.537 170.499 213.323 166.219 226.893C163.534 226.893 160.469 226.163 156.973 224.727C153.503 223.292 151.755 221.832 151.755 220.397C151.755 219.768 152.996 213.021 155.504 203.957C159.607 190.161 163.052 177.497 165.813 165.967C168.574 154.436 170.043 144.466 170.221 136.007C171.462 134.371 173.26 132.86 175.566 131.526C177.871 130.192 180.201 129.512 182.531 129.512C187.344 129.512 189.751 132.181 189.751 137.543C189.751 142.906 187.42 154.839 182.785 172.739C191.524 156.677 200.947 142.88 211.028 131.35C221.11 119.819 230.533 114.054 239.272 114.054C244.439 114.054 248.137 116.219 250.392 120.549C252.621 124.88 253.735 130.544 253.735 137.543C253.735 144.542 252.849 152.17 251.05 160.403C249.277 168.635 247.403 175.534 245.427 181.097C252.216 166.898 259.258 155.418 266.578 146.657C273.899 137.921 281.65 133.54 289.857 133.54C295.201 133.54 299.102 135.403 301.509 139.104C303.915 142.805 305.131 147.538 305.131 153.303C305.131 157.205 304.675 161.385 303.789 165.816C302.902 170.247 301.559 175.659 299.761 182.029C296.721 192.955 295.201 200.559 295.201 204.889C295.201 211.888 297.887 215.387 303.231 215.387C309.843 215.387 316.074 210.704 321.976 201.339C327.852 191.974 333.577 180.393 339.099 166.596L342.316 170.926C337.326 186.158 330.816 199.174 322.786 210C314.757 220.8 305.84 226.213 296.012 226.213C290.11 226.213 285.652 224.098 282.638 219.894" fill="#06BDFF"/>
<path d="M338.77 216.319C333.147 209.622 330.335 201.037 330.335 190.538C330.335 178.404 333.805 165.312 340.771 151.314C347.737 137.316 356.527 125.534 367.14 115.967C377.754 106.4 388.164 101.617 398.322 101.617C409.391 101.617 414.913 107.911 414.913 120.449C414.913 130.544 411.595 139.96 405.009 148.696C398.398 157.457 389.912 164.607 379.577 170.171C369.217 175.735 358.882 179.134 348.522 180.367C347.813 183.867 347.458 187.568 347.458 191.495C347.458 198.897 349.054 205.09 352.271 210.025C355.488 214.959 360.934 217.426 368.609 217.426C379.501 217.426 390.47 212.165 401.539 201.666C412.608 191.168 421.626 178.202 428.567 162.744L431.784 165.514C424.64 183.842 414.736 198.544 402.071 209.672C389.406 220.8 376.36 226.339 362.986 226.339C352.448 226.339 344.368 222.99 338.77 216.294V216.319ZM373.447 161.485C381.655 155.921 388.671 149.401 394.472 141.873C400.272 134.371 403.16 126.491 403.16 118.258C403.16 115.791 402.755 113.978 401.944 112.845C401.134 111.712 399.665 111.159 397.537 111.159C392.015 111.159 385.986 114.356 379.476 120.725C372.966 127.12 366.988 135.252 361.542 145.121C356.096 155.015 352.221 164.783 349.89 174.451C357.388 171.354 365.24 167.049 373.447 161.485Z" fill="#06BDFF"/>
<path d="M421.778 219.667C418.13 215.236 416.281 208.917 416.281 200.684C416.281 188.55 420.081 174.954 427.655 159.924C435.228 144.894 444.829 132.13 456.43 121.632C468.031 111.133 479.354 105.872 490.424 105.872C497.39 105.872 503.19 108.037 507.826 112.367C512.461 116.697 514.792 122.261 514.792 129.033C514.792 133.767 513.626 137.165 511.321 139.23C508.991 141.294 505.799 142.326 501.696 142.326C502.582 138.626 503.038 135.025 503.038 131.526C503.038 126.39 501.974 122.211 499.821 119.013C497.668 115.816 494.375 114.23 489.917 114.23C482.065 114.23 473.807 119.265 465.144 129.361C456.481 139.456 449.262 151.49 443.461 165.488C437.66 179.486 434.773 191.545 434.773 201.616C434.773 209.647 437.179 213.65 441.992 213.65C449.135 213.65 457.519 207.104 467.145 194.038C476.77 180.972 487.131 165.06 498.2 146.329C500.505 146.732 502.886 147.613 505.293 148.948C507.699 150.282 508.915 151.994 508.915 154.033C508.915 155.695 508.054 158.313 506.382 161.913C504.685 165.513 503.646 167.628 503.292 168.233C500.252 174.199 497.845 179.511 496.072 184.144C494.274 188.776 493.387 193.056 493.387 196.958C493.387 200.458 494.147 203.605 495.667 206.374C497.187 209.143 499.467 210.553 502.506 210.553C507.674 210.553 514.184 206.273 522.036 197.739C529.889 189.204 537.64 177.195 545.315 161.762L548 164.859C544.251 175.785 539.438 185.503 533.536 194.038C527.634 202.573 521.302 209.219 514.538 213.952C507.75 218.685 501.24 221.052 494.983 221.052C488.727 221.052 483.964 218.937 480.671 214.733C477.378 210.503 475.732 205.417 475.732 199.451C475.732 196.782 476.011 193.786 476.543 190.488C468.513 202.85 461.319 211.888 454.986 217.653C448.654 223.418 442.346 226.288 436.115 226.288C430.213 226.288 425.451 224.073 421.803 219.642" fill="#06BDFF"/>
</svg>
