<svg width="86" height="48" viewBox="0 0 86 48" fill="none" xmlns="http://www.w3.org/2000/svg">
<path d="M33.917 18.8111C34.2547 18.8109 34.5848 18.7105 34.8655 18.5228C35.1463 18.335 35.365 18.0682 35.4941 17.7562C35.6233 17.4441 35.6571 17.1008 35.5911 16.7696C35.5252 16.4383 35.3625 16.1341 35.1237 15.8953C34.8849 15.6565 34.5807 15.4938 34.2495 15.4279C33.9182 15.3619 33.5749 15.3957 33.2628 15.5249C32.9508 15.654 32.684 15.8728 32.4963 16.1535C32.3085 16.4343 32.2082 16.7643 32.208 17.102C32.2088 17.555 32.3891 17.9893 32.7094 18.3096C33.0297 18.6299 33.464 18.8103 33.917 18.8111Z" fill="#E82228"/>
<path d="M77.587 16.231H81.005V36.81H77.587V16.231Z" fill="#E82228"/>
<path d="M73.053 16.231H76.472V36.81H73.053V16.231Z" fill="#E82228"/>
<path d="M59.483 34.229L58.193 36.8101H51.393C51.1263 36.8174 50.861 36.7684 50.6145 36.6664C50.3679 36.5644 50.1456 36.4116 49.962 36.218C49.5827 35.8236 49.3699 35.2982 49.368 34.751V23.382C49.3626 23.1099 49.4125 22.8395 49.5146 22.5872C49.6167 22.3348 49.7689 22.1058 49.962 21.914C50.144 21.7159 50.3652 21.5578 50.6115 21.4496C50.8579 21.3415 51.124 21.2858 51.393 21.286H59.484L58.194 23.902H53.171V34.228L59.483 34.229Z" fill="#E82228"/>
<path d="M32.034 21.287H35.8V36.81H32.034V21.287Z" fill="#E82228"/>
<path d="M30.915 34.754C30.9223 35.0261 30.8735 35.2968 30.7717 35.5491C30.6698 35.8015 30.5171 36.0302 30.323 36.221C30.1414 36.4169 29.9196 36.5713 29.6728 36.6735C29.426 36.7756 29.1599 36.8233 28.893 36.813H19.582L20.837 34.2321H27.15V30.354H21.57C21.3054 30.3549 21.0437 30.2993 20.8023 30.191C20.5609 30.0827 20.3453 29.9242 20.17 29.726C19.9737 29.5448 19.819 29.3231 19.717 29.0761C19.6149 28.8292 19.5679 28.563 19.579 28.296V23.38C19.5741 22.8407 19.7784 22.3205 20.1492 21.9288C20.52 21.5372 21.0282 21.3046 21.567 21.28H30.912L29.657 23.8961H23.343V27.767H28.89C29.1587 27.7674 29.4245 27.8212 29.6722 27.9253C29.9198 28.0294 30.1443 28.1818 30.3324 28.3735C30.5206 28.5653 30.6688 28.7925 30.7683 29.0421C30.8678 29.2916 30.9167 29.5584 30.912 29.827L30.915 34.754Z" fill="#E82228"/>
<path d="M18.463 36.81H7.58301L8.83899 34.229H13.791L10.825 19.929L5.41998 36.811H1.37299L8.80298 13.056H12.847L18.463 36.81Z" fill="#E82228"/>
<path d="M64.368 23.903H68.168V28.544H64.368V23.903ZM71.935 31.125V23.383C71.941 23.1111 71.8916 22.8409 71.7898 22.5887C71.688 22.3365 71.536 22.1076 71.343 21.916C71.1634 21.7147 70.9425 21.5545 70.6954 21.4461C70.4483 21.3377 70.1808 21.2838 69.911 21.288H62.621C62.3467 21.2843 62.0747 21.3383 61.8227 21.4465C61.5706 21.5546 61.3442 21.7146 61.158 21.916C60.9644 22.1072 60.8119 22.336 60.7097 22.5882C60.6076 22.8405 60.558 23.111 60.564 23.383V34.754C60.5648 35.3014 60.7777 35.8272 61.158 36.221C61.3461 36.4176 61.5737 36.5721 61.8259 36.6741C62.0781 36.7762 62.3491 36.8235 62.621 36.813H69.421L70.677 34.231H64.367V31.131L71.935 31.125Z" fill="#E82228"/>
<path d="M44.485 34.229H40.717V29.5941H44.485V34.229ZM47.695 21.915C47.5132 21.7167 47.292 21.5584 47.0457 21.4503C46.7993 21.3421 46.533 21.2865 46.264 21.2871H39.464L38.176 23.903H44.489V26.973H38.944C38.6745 26.9695 38.4073 27.0238 38.1605 27.1321C37.9137 27.2405 37.6929 27.4003 37.513 27.601C37.1359 27.9958 36.9244 28.5201 36.922 29.066V34.754C36.9234 35.3008 37.135 35.826 37.513 36.221C37.6948 36.417 37.9168 36.5713 38.1638 36.6735C38.4107 36.7757 38.6769 36.8233 38.944 36.8131H46.269C46.5357 36.8204 46.801 36.7714 47.0475 36.6694C47.2941 36.5674 47.5164 36.4146 47.7 36.221C48.078 35.8261 48.2889 35.3006 48.289 34.754V23.382C48.2953 23.1104 48.2463 22.8403 48.1451 22.5881C48.0438 22.3359 47.8924 22.1069 47.7 21.915" fill="#E82228"/>
<path d="M54.391 10.579C54.391 10.579 40.717 3.63898 36.674 2.10498C32.661 0.568982 29.384 0.35901 27.988 1.85901C26.626 3.32301 29.661 7.859 25.231 7.336C20.838 6.777 15.047 4.33602 12.362 4.23602C9.67501 4.16702 10.303 5.17798 10.303 5.17798L8.73396 6.08399C9.36136 6.21338 9.97838 6.38888 10.58 6.60901C10.7473 6.6821 10.9108 6.76349 11.07 6.85297C11.978 7.30397 13.583 8.98098 13.058 10.725C12.572 12.469 7.40802 12.225 4.82802 12.084C2.24502 11.984 0.292996 12.712 0.117996 14.769C0.181662 16.4906 0.806382 18.1443 1.89699 19.478C1.6468 18.6365 1.48331 17.7717 1.40901 16.897C1.26901 12.815 13.233 15.781 14.421 12.048C14.873 10.688 13.338 8.45503 16.267 7.90003C19.196 7.34503 25.198 9.36002 26.767 8.42102C28.336 7.51402 28.44 5.56198 29.767 4.82898C31.057 4.05998 34.407 4.06001 40.442 5.91101C46.334 7.72301 54.392 10.583 54.392 10.583" fill="#E82228"/>
<path d="M54.844 10.405C54.844 10.405 40.576 3.18603 36.568 1.72003C32.52 0.25503 28.127 -0.720014 26.591 0.674986C25.091 2.07499 29.973 7.26802 25.791 6.77502C21.604 6.25102 14.942 3.04297 12.257 2.97497C11.5872 2.87595 10.9053 3.04312 10.3573 3.44067C9.80925 3.83823 9.43873 4.43458 9.32498 5.10199L7.79294 5.97497C8.58603 6.11051 9.35886 6.34572 10.093 6.67499C10.86 7.09499 13.129 8.28003 12.954 9.91803C12.779 11.556 7.30197 11.318 4.68997 11.21C2.10697 11.11 0.152973 11.803 0.012973 13.757C-0.162027 15.71 1.65296 18.183 1.79196 18.219C1.37263 17.4587 1.13315 16.6123 1.09195 15.745C1.05495 14.07 4.26598 13.266 7.72098 13.197C11.176 13.128 13.721 12.497 14.136 11.175C14.592 9.84799 12.569 7.05802 15.497 6.53302C18.425 6.00802 25.648 8.52298 27.182 7.64898C28.751 6.77899 27.7739 4.405 29.4489 3.604C31.1239 2.803 34.611 2.69799 40.507 4.96399C45.2777 6.79806 50.056 8.61209 54.842 10.406" fill="#BABABA"/>
<path d="M84.315 17.271C84.2603 17.2963 84.2 17.307 84.14 17.302H83.896V16.922H84.14C84.2002 16.9169 84.2606 16.9279 84.315 16.954C84.3391 16.9762 84.3578 17.0036 84.3698 17.0341C84.3817 17.0646 84.3866 17.0974 84.384 17.13C84.376 17.183 84.3519 17.2322 84.315 17.271ZM84.594 17.302C84.638 17.2423 84.6618 17.1702 84.662 17.096C84.6666 17.0412 84.6561 16.9862 84.6316 16.937C84.6071 16.8878 84.5695 16.8463 84.523 16.817C84.4034 16.7625 84.2721 16.7387 84.141 16.748H83.619V18.003H83.898V17.483H84.107L84.142 17.553L84.352 18.005H84.664L84.386 17.448C84.4643 17.4135 84.5356 17.3647 84.596 17.304" fill="#BABABA"/>
<path d="M84.092 16.234C83.8644 16.2342 83.642 16.3019 83.4529 16.4284C83.2638 16.555 83.1164 16.7347 83.0294 16.945C82.9425 17.1553 82.9197 17.3866 82.9641 17.6098C83.0086 17.833 83.1182 18.038 83.2791 18.1989C83.4401 18.3598 83.645 18.4694 83.8682 18.5139C84.0914 18.5583 84.3227 18.5356 84.533 18.4486C84.7433 18.3616 84.923 18.2143 85.0496 18.0251C85.1761 17.836 85.2438 17.6136 85.244 17.386C85.2435 17.0807 85.1219 16.7879 84.906 16.572C84.69 16.3561 84.3974 16.2345 84.092 16.234ZM85.051 17.386C85.051 17.5762 84.9946 17.7621 84.8889 17.9202C84.7832 18.0782 84.633 18.2014 84.4573 18.274C84.2816 18.3467 84.0882 18.3657 83.9018 18.3284C83.7153 18.2912 83.5441 18.1995 83.4098 18.0649C83.2754 17.9303 83.1841 17.7588 83.1472 17.5723C83.1104 17.3857 83.1297 17.1925 83.2027 17.0169C83.2758 16.8413 83.3992 16.6914 83.5575 16.586C83.7158 16.4806 83.9019 16.4247 84.092 16.425C84.2181 16.425 84.343 16.4499 84.4594 16.4982C84.5759 16.5465 84.6818 16.6173 84.7708 16.7066C84.8599 16.7959 84.9305 16.9019 84.9785 17.0184C85.0266 17.135 85.0513 17.2599 85.051 17.386Z" fill="#BABABA"/>
<path d="M32.973 44.661C32.957 44.8874 33.0052 45.1137 33.112 45.314C33.1647 45.4052 33.2405 45.481 33.3318 45.5337C33.4231 45.5864 33.5266 45.6141 33.632 45.614C33.7144 45.6139 33.7957 45.5947 33.8694 45.5579C33.9432 45.5211 34.0074 45.4678 34.057 45.402C34.1893 45.2044 34.2509 44.968 34.232 44.731C34.2523 44.4844 34.1901 44.2382 34.055 44.031C34.0014 43.9624 33.9326 43.9071 33.8539 43.8696C33.7753 43.8321 33.6891 43.8134 33.602 43.815C33.516 43.8138 33.4309 43.832 33.353 43.8684C33.275 43.9048 33.2063 43.9583 33.152 44.025C33.0193 44.21 32.9559 44.4359 32.973 44.663M32.226 46.146V42.221H32.978V43.635C33.0769 43.5109 33.2023 43.4105 33.3451 43.3412C33.4879 43.272 33.6444 43.2357 33.803 43.235C33.9648 43.2309 34.1254 43.2624 34.2737 43.3272C34.4219 43.392 34.5541 43.4885 34.661 43.61C34.9064 43.9147 35.0278 44.3007 35.001 44.691C35.0273 45.0948 34.9041 45.4941 34.655 45.813C34.5525 45.937 34.4237 46.0366 34.2778 46.1046C34.132 46.1726 33.9729 46.2072 33.812 46.206C33.6446 46.2051 33.4799 46.1635 33.332 46.085C33.1693 45.9988 33.0292 45.8755 32.923 45.725V46.143L32.226 46.146Z" fill="#BABABA"/>
<path d="M36.383 46.144H35.63V43.3H36.33V43.7C36.4101 43.5528 36.5201 43.4241 36.653 43.322C36.7504 43.2612 36.8632 43.2296 36.978 43.231C37.1525 43.2316 37.3235 43.2804 37.472 43.372L37.241 44.028C37.1372 43.9541 37.0143 43.9114 36.887 43.905C36.7906 43.9019 36.6961 43.9326 36.62 43.992C36.5306 44.0761 36.47 44.1864 36.447 44.307C36.3925 44.6215 36.3714 44.941 36.384 45.26L36.383 46.144Z" fill="#BABABA"/>
<path d="M37.847 43.301H38.6V46.145H37.847V43.301ZM37.847 42.219H38.6V42.919H37.847V42.219Z" fill="#BABABA"/>
<path d="M42.017 46.144H41.266V44.693C41.2768 44.4917 41.2603 44.2899 41.217 44.093C41.1887 44.0076 41.1332 43.9338 41.0591 43.883C40.9822 43.8308 40.8908 43.8042 40.798 43.807C40.6729 43.8051 40.5503 43.8429 40.448 43.915C40.3466 43.9822 40.2711 44.082 40.234 44.198C40.1861 44.4125 40.1669 44.6324 40.177 44.852V46.14H39.425V43.296H40.125V43.714C40.2793 43.5018 40.5005 43.3476 40.753 43.2763C41.0054 43.2051 41.2745 43.2208 41.517 43.321C41.6386 43.3698 41.746 43.4485 41.829 43.55C41.8993 43.644 41.9493 43.7517 41.976 43.866C42.0073 44.0328 42.021 44.2024 42.017 44.372V46.144Z" fill="#BABABA"/>
<path d="M43.437 44.664C43.4177 44.8985 43.4796 45.1326 43.6121 45.327C43.6634 45.3927 43.7291 45.4458 43.8042 45.4822C43.8792 45.5186 43.9616 45.5373 44.045 45.537C44.1339 45.5377 44.2217 45.5187 44.3023 45.4814C44.3829 45.444 44.4542 45.3892 44.511 45.321C44.6505 45.138 44.7181 44.9104 44.701 44.681C44.7195 44.4481 44.655 44.216 44.519 44.026C44.4638 43.9575 44.3936 43.9026 44.3139 43.8653C44.2342 43.828 44.147 43.8094 44.059 43.811C43.9734 43.8094 43.8886 43.8275 43.8111 43.8639C43.7336 43.9004 43.6655 43.9541 43.6121 44.021C43.4812 44.2083 43.4193 44.4362 43.437 44.664ZM42.765 46.33L43.6251 46.435C43.627 46.4743 43.6369 46.5128 43.654 46.5482C43.6712 46.5835 43.6954 46.6151 43.725 46.641C43.8266 46.7012 43.9442 46.7288 44.062 46.72C44.2145 46.7302 44.367 46.6998 44.504 46.632C44.5746 46.5881 44.6277 46.5209 44.654 46.442C44.6836 46.3295 44.6958 46.2131 44.6901 46.097V45.681C44.5973 45.8226 44.4707 45.9389 44.3218 46.0193C44.1729 46.0998 44.0063 46.142 43.837 46.142C43.6571 46.1461 43.4793 46.1036 43.3205 46.0189C43.1618 45.9341 43.0277 45.8098 42.931 45.658C42.7479 45.3748 42.6564 45.042 42.6691 44.705C42.6417 44.3102 42.765 43.9196 43.014 43.612C43.1204 43.4906 43.2521 43.3939 43.3998 43.3288C43.5475 43.2637 43.7076 43.2316 43.869 43.235C44.041 43.2341 44.2106 43.276 44.3624 43.3568C44.5143 43.4376 44.6436 43.5548 44.739 43.698V43.298H45.439V45.85C45.4486 46.1033 45.421 46.3567 45.357 46.602C45.3133 46.7506 45.2328 46.8857 45.123 46.995C45.0082 47.0982 44.8714 47.1741 44.723 47.217C44.5171 47.2762 44.3033 47.3035 44.089 47.298C43.7289 47.3312 43.3679 47.2437 43.063 47.049C42.9678 46.975 42.8911 46.8798 42.839 46.7709C42.7869 46.6621 42.7609 46.5426 42.7631 46.422V46.33" fill="#BABABA"/>
<path d="M45.974 45.329L46.729 45.214C46.7533 45.3455 46.8243 45.4638 46.929 45.547C47.0499 45.6297 47.1948 45.6699 47.341 45.661C47.4949 45.6715 47.6482 45.6341 47.78 45.554C47.8117 45.5313 47.8373 45.5012 47.8547 45.4664C47.8722 45.4315 47.8808 45.393 47.88 45.354C47.8817 45.3016 47.8626 45.2505 47.827 45.212C47.7515 45.1603 47.6654 45.1261 47.575 45.112C47.1741 45.0484 46.7851 44.9246 46.421 44.745C46.3138 44.6767 46.2261 44.5818 46.1667 44.4694C46.1073 44.357 46.0781 44.2311 46.082 44.104C46.0811 43.9853 46.1069 43.8679 46.1577 43.7605C46.2084 43.6532 46.2827 43.5587 46.375 43.484C46.6359 43.2966 46.9548 43.2077 47.275 43.2331C47.5765 43.212 47.8776 43.2776 48.143 43.422C48.3369 43.5562 48.4755 43.7563 48.533 43.985L47.824 44.117C47.7992 44.0138 47.7377 43.9232 47.651 43.862C47.5417 43.7966 47.4151 43.7658 47.288 43.774C47.1418 43.7625 46.9951 43.7912 46.864 43.857C46.8374 43.8725 46.8154 43.8947 46.8001 43.9213C46.7848 43.948 46.7769 43.9783 46.777 44.0091C46.7773 44.0364 46.7842 44.0633 46.7973 44.0874C46.8104 44.1114 46.8291 44.132 46.852 44.1471C47.0754 44.247 47.3106 44.3179 47.552 44.3581C47.8527 44.4068 48.1391 44.5208 48.391 44.692C48.4697 44.7617 48.5317 44.8483 48.5724 44.9452C48.6131 45.0422 48.6314 45.147 48.626 45.252C48.626 45.3815 48.5966 45.5094 48.5402 45.6259C48.4837 45.7425 48.4016 45.8447 48.3 45.925C48.0218 46.1308 47.6791 46.2301 47.334 46.205C47.0105 46.2228 46.6893 46.1408 46.414 45.9701C46.1921 45.819 46.0343 45.5909 45.971 45.33" fill="#BABABA"/>
<path d="M52.794 46.145V45.72C52.6896 45.8718 52.549 45.9952 52.385 46.079C52.2201 46.1648 52.0369 46.2094 51.851 46.209C51.6718 46.2123 51.4947 46.1692 51.337 46.084C51.1911 46.0063 51.0752 45.882 51.008 45.731C50.9321 45.53 50.8981 45.3156 50.908 45.101V43.301H51.66V44.6089C51.6489 44.8544 51.663 45.1004 51.702 45.343C51.7267 45.4296 51.7799 45.5054 51.853 45.558C51.9351 45.6126 52.0324 45.6399 52.131 45.636C52.2549 45.6379 52.3763 45.6008 52.478 45.53C52.5735 45.467 52.6463 45.3752 52.686 45.2679C52.7372 45.0154 52.756 44.7573 52.742 44.5V43.3H53.495V46.144L52.794 46.145Z" fill="#BABABA"/>
<path d="M54.062 45.329L54.816 45.214C54.8411 45.3452 54.912 45.4632 55.016 45.547C55.137 45.6295 55.2818 45.6696 55.428 45.661C55.5822 45.6713 55.7358 45.634 55.868 45.554C55.8995 45.5311 55.925 45.501 55.9424 45.4662C55.9598 45.4314 55.9685 45.3929 55.968 45.354C55.9694 45.3014 55.95 45.2504 55.914 45.212C55.8394 45.1601 55.7539 45.126 55.664 45.112C55.2628 45.0483 54.8734 44.9246 54.509 44.745C54.4019 44.6766 54.3145 44.5816 54.2553 44.4692C54.196 44.3568 54.167 44.231 54.171 44.104C54.1697 43.9852 54.1955 43.8677 54.2462 43.7603C54.297 43.6529 54.3715 43.5585 54.464 43.484C54.7248 43.2963 55.0437 43.2074 55.364 43.233C55.6654 43.2118 55.9667 43.2774 56.232 43.422C56.4259 43.5563 56.5645 43.7563 56.622 43.985L55.913 44.117C55.8877 44.014 55.8263 43.9236 55.74 43.862C55.6308 43.7964 55.5041 43.7657 55.377 43.774C55.2301 43.7627 55.0829 43.7914 54.951 43.857C54.9247 43.8727 54.9029 43.8949 54.8878 43.9216C54.8728 43.9482 54.8649 43.9784 54.865 44.009C54.8654 44.0364 54.8725 44.0632 54.8855 44.0872C54.8986 44.1113 54.9173 44.1318 54.94 44.147C55.1634 44.2471 55.3986 44.318 55.64 44.358C55.941 44.4067 56.2278 44.5207 56.48 44.692C56.5589 44.7616 56.6211 44.8481 56.662 44.9451C56.7028 45.042 56.7213 45.1469 56.716 45.252C56.7155 45.3815 56.6858 45.5093 56.6292 45.6258C56.5726 45.7423 56.4905 45.8445 56.389 45.925C56.1105 46.1309 55.7675 46.2303 55.422 46.205C55.0988 46.2227 54.778 46.1407 54.503 45.97C54.281 45.8191 54.1231 45.591 54.06 45.33" fill="#BABABA"/>
<path d="M60.313 43.3V43.9H59.8V45.044C59.7953 45.1795 59.8003 45.3152 59.815 45.45C59.8243 45.4907 59.8487 45.5263 59.883 45.55C59.9199 45.5757 59.9641 45.5886 60.009 45.587C60.1123 45.5789 60.2136 45.5543 60.309 45.514L60.373 46.098C60.1848 46.1756 59.9826 46.2137 59.779 46.21C59.6535 46.2117 59.5288 46.189 59.412 46.143C59.317 46.1076 59.2339 46.0463 59.172 45.966C59.117 45.8772 59.0827 45.7769 59.072 45.673C59.0501 45.4969 59.0418 45.3193 59.047 45.142V43.903H58.702V43.303H59.047V42.738L59.802 42.299V43.299L60.313 43.3Z" fill="#BABABA"/>
<path d="M61.487 44.7229C61.4715 44.9559 61.5427 45.1864 61.687 45.37C61.7485 45.4411 61.8246 45.4981 61.9101 45.5372C61.9956 45.5763 62.0885 45.5966 62.1825 45.5966C62.2765 45.5966 62.3695 45.5763 62.455 45.5372C62.5405 45.4981 62.6165 45.4411 62.678 45.37C62.8226 45.1847 62.8939 44.9525 62.878 44.7179C62.8931 44.4862 62.8219 44.2572 62.678 44.0749C62.6162 44.0044 62.5399 43.9479 62.4545 43.9092C62.369 43.8704 62.2763 43.8504 62.1825 43.8504C62.0887 43.8504 61.996 43.8704 61.9106 43.9092C61.8251 43.9479 61.7489 44.0044 61.687 44.0749C61.5426 44.2588 61.4713 44.4896 61.487 44.7229ZM60.716 44.682C60.7167 44.4288 60.7799 44.1798 60.9001 43.9569C61.0172 43.7296 61.2001 43.5428 61.425 43.4209C61.6574 43.2965 61.9175 43.2333 62.181 43.237C62.3766 43.23 62.5715 43.2637 62.7534 43.3358C62.9353 43.4079 63.1003 43.5169 63.238 43.656C63.5041 43.9464 63.6518 44.326 63.6518 44.7199C63.6518 45.1139 63.5041 45.4935 63.238 45.784C63.1019 45.9233 62.9385 46.0329 62.758 46.1059C62.5774 46.1788 62.3837 46.2136 62.1891 46.208C61.9301 46.2083 61.6746 46.148 61.443 46.032C61.2126 45.9205 61.0236 45.7388 60.903 45.513C60.773 45.2554 60.7097 44.9693 60.719 44.6809" fill="#BABABA"/>
<path d="M64.898 44.664C64.8786 44.8985 64.9404 45.1326 65.073 45.327C65.1243 45.3928 65.1901 45.4459 65.2651 45.4823C65.3402 45.5187 65.4226 45.5374 65.506 45.537C65.5948 45.5377 65.6827 45.5187 65.7633 45.4814C65.8438 45.444 65.9151 45.3892 65.972 45.321C66.1111 45.1379 66.1783 44.9103 66.161 44.681C66.1795 44.4481 66.115 44.216 65.979 44.026C65.9237 43.9576 65.8535 43.9027 65.7738 43.8654C65.6941 43.8282 65.607 43.8095 65.519 43.811C65.4335 43.8095 65.3489 43.8277 65.2716 43.8641C65.1942 43.9005 65.1263 43.9542 65.073 44.021C64.942 44.2082 64.8801 44.4362 64.898 44.664ZM64.227 46.33L65.086 46.435C65.0908 46.5142 65.1267 46.5882 65.186 46.641C65.2879 46.7012 65.4059 46.7288 65.524 46.72C65.6762 46.7304 65.8284 46.7 65.965 46.632C66.0358 46.5878 66.0894 46.5208 66.117 46.442C66.1452 46.3293 66.1567 46.213 66.151 46.097V45.681C66.0586 45.8225 65.9325 45.9387 65.7839 46.0192C65.6353 46.0997 65.469 46.1419 65.3 46.142C65.1199 46.1463 64.9418 46.1039 64.7829 46.0191C64.624 45.9343 64.4897 45.81 64.393 45.658C64.2095 45.3749 64.1177 45.0422 64.13 44.705C64.1029 44.3104 64.2257 43.92 64.474 43.612C64.5808 43.4905 64.7128 43.3939 64.8608 43.3287C65.0088 43.2636 65.1693 43.2316 65.331 43.235C65.5029 43.2342 65.6722 43.2761 65.8239 43.3569C65.9756 43.4377 66.1048 43.5549 66.2 43.698V43.298H66.9V45.85C66.9102 46.1034 66.8823 46.3569 66.817 46.602C66.7725 46.75 66.6925 46.8849 66.584 46.995C66.4687 47.0976 66.3321 47.1734 66.184 47.217C65.9787 47.2762 65.7656 47.3035 65.552 47.298C65.1918 47.3312 64.8309 47.2436 64.526 47.049C64.4307 46.975 64.354 46.8798 64.3019 46.771C64.2498 46.6622 64.2238 46.5426 64.226 46.422L64.227 46.33Z" fill="#BABABA"/>
<path d="M69.389 44.48C69.3976 44.298 69.3373 44.1195 69.22 43.98C69.1708 43.9256 69.1106 43.8823 69.0433 43.853C68.9761 43.8237 68.9034 43.8091 68.8301 43.81C68.7532 43.8081 68.6769 43.8231 68.6065 43.8541C68.5362 43.885 68.4735 43.9311 68.423 43.989C68.3105 44.1258 68.2541 44.3002 68.2651 44.477L69.389 44.48ZM69.346 45.241L70.095 45.366C70.015 45.6194 69.855 45.8401 69.639 45.995C69.407 46.1453 69.1343 46.2204 68.858 46.21C68.6489 46.2262 68.439 46.1904 68.247 46.1058C68.0551 46.0212 67.8871 45.8903 67.758 45.725C67.5617 45.4373 67.4631 45.094 67.477 44.746C67.4531 44.3433 67.5853 43.9468 67.846 43.639C67.9637 43.5087 68.1083 43.4055 68.2697 43.3364C68.4311 43.2674 68.6056 43.2341 68.781 43.239C68.9684 43.2299 69.1555 43.2628 69.3285 43.3353C69.5015 43.4078 69.6561 43.518 69.781 43.658C70.0531 44.0277 70.1782 44.4853 70.1321 44.942H68.246C68.2406 45.1321 68.3054 45.3176 68.428 45.463C68.483 45.5233 68.5503 45.5712 68.6253 45.6033C68.7004 45.6354 68.7814 45.6509 68.863 45.649C68.9717 45.6523 69.078 45.6169 69.163 45.549C69.2542 45.4669 69.3178 45.3586 69.345 45.239" fill="#BABABA"/>
<path d="M72.109 43.3V43.9H71.595V45.044C71.5904 45.1795 71.5951 45.3152 71.609 45.45C71.619 45.4901 71.6427 45.5254 71.676 45.55C71.7138 45.5754 71.7585 45.5883 71.804 45.587C71.9073 45.579 72.0086 45.5543 72.104 45.514L72.168 46.098C71.9779 46.1764 71.7736 46.2145 71.568 46.21C71.4428 46.2114 71.3185 46.1887 71.202 46.143C71.1071 46.1075 71.024 46.0462 70.962 45.966C70.9067 45.8773 70.8725 45.777 70.862 45.673C70.8403 45.4969 70.8319 45.3193 70.837 45.142V43.903H70.491V43.303H70.837V42.738L71.592 42.299V43.299L72.109 43.3Z" fill="#BABABA"/>
<path d="M73.435 42.219V43.661C73.5906 43.4661 73.8063 43.3281 74.0485 43.2686C74.2907 43.2091 74.5458 43.2314 74.774 43.332C74.8989 43.3847 75.0075 43.4696 75.089 43.578C75.1597 43.6778 75.2091 43.7912 75.234 43.911C75.2643 44.0971 75.277 44.2856 75.272 44.474V46.143H74.52V44.643C74.5302 44.4526 74.5157 44.2617 74.477 44.075C74.4495 43.9965 74.3963 43.9295 74.326 43.885C74.2446 43.8342 74.1499 43.8091 74.054 43.813C73.936 43.811 73.8198 43.8426 73.719 43.904C73.6177 43.9681 73.5418 44.0653 73.504 44.179C73.4509 44.3545 73.4279 44.5378 73.436 44.721V46.146H72.683V42.221L73.435 42.219Z" fill="#BABABA"/>
<path d="M77.78 44.48C77.7879 44.2979 77.7273 44.1195 77.61 43.98C77.5607 43.9255 77.5003 43.8822 77.4329 43.8529C77.3654 43.8236 77.2926 43.809 77.2191 43.81C77.1424 43.8083 77.0663 43.8234 76.9962 43.8544C76.926 43.8853 76.8635 43.9312 76.813 43.989C76.7002 44.1256 76.6434 44.3001 76.654 44.477L77.78 44.48ZM77.7371 45.241L78.486 45.366C78.4058 45.6193 78.2459 45.84 78.03 45.995C77.798 46.1453 77.5253 46.2204 77.249 46.21C77.0399 46.2264 76.83 46.1907 76.638 46.106C76.446 46.0214 76.278 45.8905 76.149 45.725C75.9523 45.4375 75.8537 45.0941 75.868 44.746C75.8443 44.3431 75.9768 43.9466 76.238 43.639C76.3555 43.5087 76.4999 43.4054 76.6611 43.3364C76.8224 43.2673 76.9967 43.2341 77.1721 43.239C77.3594 43.2299 77.5465 43.2628 77.7195 43.3353C77.8925 43.4078 78.0471 43.518 78.1721 43.658C78.4435 44.028 78.5686 44.4853 78.5231 44.942H76.637C76.6305 45.1323 76.6954 45.3181 76.819 45.463C76.8738 45.5233 76.9409 45.5712 77.0157 45.6033C77.0906 45.6354 77.1716 45.651 77.253 45.649C77.3618 45.6525 77.4682 45.617 77.553 45.549C77.6445 45.4671 77.7082 45.3587 77.735 45.239" fill="#BABABA"/>
<path d="M79.915 46.144H79.163V43.3H79.863V43.7C79.9427 43.5526 80.0528 43.4238 80.186 43.322C80.2833 43.2609 80.3961 43.2293 80.511 43.231C80.6875 43.2311 80.8605 43.2799 81.011 43.372L80.778 44.028C80.6746 43.9541 80.552 43.9114 80.425 43.905C80.3285 43.9017 80.234 43.9325 80.158 43.992C80.0684 44.076 80.0078 44.1863 79.985 44.307C79.9291 44.6214 79.9077 44.941 79.921 45.26L79.915 46.144Z" fill="#BABABA"/>
</svg>
