<svg width="494" height="201" viewBox="0 0 494 201" fill="none" xmlns="http://www.w3.org/2000/svg">
<path d="M0.557811 200.173H0V31.6805C0 14.175 14.1914 0 31.6805 0C49.1859 0 63.3609 14.1914 63.3609 31.6805V137.337C63.3773 172.052 35.257 200.173 0.557811 200.173Z" fill="#202020"/>
<path d="M136.91 200.173H136.352C101.653 200.173 73.5327 172.052 73.5327 137.353V31.6968C73.5327 14.1914 87.7241 0.0163574 105.213 0.0163574C122.719 0.0163574 136.894 14.2078 136.894 31.6968V200.173H136.91Z" fill="#202020"/>
<path d="M178.205 200.484V190.066C160.896 189.771 146.918 175.613 146.918 158.238C146.918 140.684 161.191 126.41 178.746 126.41C196.301 126.41 210.574 140.684 210.574 158.238C210.574 185.62 179.288 199.992 178.959 200.14L178.205 200.484Z" fill="#E26600"/>
<path d="M210.427 130.725L209.491 129.79C200.37 120.734 190.296 116.337 178.746 116.337H178.352C170.953 116.435 163.62 113.269 157.763 107.461C151.052 100.816 147.049 91.4484 147.049 82.3921V31.6968C147.049 14.1914 161.241 0.0163574 178.73 0.0163574C196.235 0.0163574 210.41 14.2078 210.41 31.6968L210.427 130.725Z" fill="#202020"/>
<path d="M289.11 82.476C293.385 82.476 296.724 83.7127 299.127 86.186C301.53 88.6593 302.731 92.2457 302.731 96.945V120H297.484V97.104C297.484 93.8533 296.636 91.3977 294.94 89.737C293.244 88.041 291 87.193 288.209 87.193C285.135 87.193 282.697 88.0763 280.895 89.843C279.128 91.5743 278.245 94.242 278.245 97.846V120H272.998V97.104C272.998 93.818 272.185 91.3447 270.56 89.684C268.97 88.0233 266.779 87.193 263.988 87.193C260.879 87.193 258.405 88.0763 256.568 89.843C254.766 91.6097 253.865 94.2773 253.865 97.846V120H248.565V82.9H253.653V88.306C254.748 86.4687 256.285 85.0377 258.264 84.013C260.278 82.9883 262.61 82.476 265.26 82.476C268.016 82.476 270.383 83.0237 272.362 84.119C274.376 85.2143 275.86 86.7337 276.814 88.677C277.98 86.6983 279.623 85.179 281.743 84.119C283.898 83.0237 286.354 82.476 289.11 82.476ZM329.155 82.476C334.101 82.476 338.006 83.9247 340.868 86.822C343.73 89.684 345.161 93.8003 345.161 99.171V120H339.861V109.771H318.449V120H313.255V99.171C313.255 93.8003 314.686 89.684 317.548 86.822C320.41 83.9247 324.279 82.476 329.155 82.476ZM339.861 105.16V98.694C339.861 94.9133 338.907 92.0513 336.999 90.108C335.126 88.1647 332.511 87.193 329.155 87.193C325.798 87.193 323.166 88.1647 321.258 90.108C319.385 92.0513 318.449 94.9133 318.449 98.694V105.16H339.861ZM368.046 103.517L361.262 110.407V120H355.962V82.9H361.262V103.623L381.402 82.9H387.444L371.597 99.595L388.451 120H382.25L368.046 103.517ZM421.152 116.131C419.562 117.474 417.477 118.534 414.898 119.311C412.318 120.053 409.509 120.424 406.471 120.424C403.079 120.424 400.199 119.982 397.832 119.099C395.464 118.18 393.68 116.926 392.479 115.336C391.277 113.746 390.677 111.909 390.677 109.824C390.677 107.704 391.277 105.884 392.479 104.365C393.715 102.81 395.305 101.697 397.249 101.026C395.694 100.319 394.475 99.2593 393.592 97.846C392.708 96.3973 392.267 94.7367 392.267 92.864C392.267 90.9207 392.814 89.1717 393.91 87.617C395.04 86.0623 396.736 84.8257 398.998 83.907C401.259 82.953 404.015 82.476 407.266 82.476C409.562 82.476 411.788 82.7233 413.944 83.218C416.134 83.7127 418.025 84.4193 419.615 85.338L418.078 89.578C414.898 87.882 411.364 87.034 407.478 87.034C404.262 87.034 401.807 87.617 400.111 88.783C398.415 89.9137 397.567 91.3977 397.567 93.235C397.567 95.0723 398.22 96.4857 399.528 97.475C400.835 98.4643 402.708 98.959 405.146 98.959H414.686V103.517H404.934C402.142 103.517 399.952 104.012 398.362 105.001C396.772 105.99 395.977 107.474 395.977 109.453C395.977 111.467 396.878 113.039 398.68 114.17C400.482 115.301 403.167 115.866 406.736 115.866C409.209 115.866 411.559 115.53 413.785 114.859C416.046 114.152 417.901 113.198 419.35 111.997L421.152 116.131ZM452.451 120L444.448 108.605C443.459 108.676 442.681 108.711 442.116 108.711H432.947V120H427.647V82.9H442.116C446.921 82.9 450.702 84.0483 453.458 86.345C456.214 88.6417 457.592 91.804 457.592 95.832C457.592 98.694 456.885 101.132 455.472 103.146C454.059 105.16 452.045 106.626 449.43 107.545L458.228 120H452.451ZM441.957 104.206C445.314 104.206 447.875 103.482 449.642 102.033C451.409 100.584 452.292 98.5173 452.292 95.832C452.292 93.1467 451.409 91.0973 449.642 89.684C447.875 88.2353 445.314 87.511 441.957 87.511H432.947V104.206H441.957ZM476.967 120.424C474.176 120.424 471.473 120 468.858 119.152C466.279 118.269 464.247 117.138 462.763 115.76L464.724 111.626C466.137 112.898 467.939 113.94 470.13 114.753C472.356 115.53 474.635 115.919 476.967 115.919C480.041 115.919 482.338 115.407 483.857 114.382C485.376 113.322 486.136 111.926 486.136 110.195C486.136 108.923 485.712 107.898 484.864 107.121C484.051 106.308 483.027 105.69 481.79 105.266C480.589 104.842 478.875 104.365 476.649 103.835C473.858 103.164 471.596 102.492 469.865 101.821C468.169 101.15 466.703 100.125 465.466 98.747C464.265 97.3337 463.664 95.4433 463.664 93.076C463.664 91.0973 464.176 89.313 465.201 87.723C466.261 86.133 467.851 84.861 469.971 83.907C472.091 82.953 474.723 82.476 477.868 82.476C480.059 82.476 482.214 82.7587 484.334 83.324C486.454 83.8893 488.274 84.702 489.793 85.762L488.044 90.002C486.489 89.0127 484.829 88.2707 483.062 87.776C481.295 87.246 479.564 86.981 477.868 86.981C474.865 86.981 472.603 87.5287 471.084 88.624C469.6 89.7193 468.858 91.1327 468.858 92.864C468.858 94.136 469.282 95.1783 470.13 95.991C470.978 96.7683 472.02 97.3867 473.257 97.846C474.529 98.27 476.243 98.7293 478.398 99.224C481.189 99.8953 483.433 100.567 485.129 101.238C486.825 101.909 488.274 102.934 489.475 104.312C490.712 105.69 491.33 107.545 491.33 109.877C491.33 111.82 490.8 113.605 489.74 115.23C488.68 116.82 487.072 118.092 484.917 119.046C482.762 119.965 480.112 120.424 476.967 120.424Z" fill="black"/>
</svg>
