<svg width="180" height="54" viewBox="0 0 180 54" fill="none" xmlns="http://www.w3.org/2000/svg">
<g clip-path="url(#clip0_402_35)">
<path d="M0.219973 26.86C0.219973 21.5887 1.78322 16.4358 4.712 12.053C7.64078 7.67023 11.8035 4.25444 16.6738 2.23766C21.544 0.220876 26.9029 -0.306299 32.0728 0.722808C37.2427 1.75191 41.9912 4.29107 45.7179 8.01914C49.4446 11.7472 51.982 16.4967 53.0091 21.667C54.0363 26.8372 53.5071 32.196 51.4885 37.0654C49.4699 41.9349 46.0525 46.0964 41.6686 49.0235C37.2848 51.9507 32.1313 53.512 26.86 53.51C23.3607 53.51 19.8957 52.8206 16.663 51.4812C13.4302 50.1418 10.493 48.1786 8.01911 45.7038C5.54523 43.229 3.58315 40.291 2.24495 37.0578C0.906754 33.8245 0.218659 30.3593 0.219973 26.86Z" fill="white"/>
<path d="M26.8601 48.11C31.0634 48.112 35.1728 46.8674 38.6687 44.5336C42.1646 42.1998 44.8898 38.8817 46.4997 34.9989C48.1096 31.1162 48.5318 26.8432 47.713 22.7205C46.8942 18.5977 44.8711 14.8104 41.8997 11.8375C38.9282 8.86465 35.1418 6.83979 31.0195 6.01904C26.8971 5.19829 22.6239 5.61853 18.7404 7.2266C14.8569 8.83467 11.5375 11.5583 9.20209 15.0531C6.86666 18.5478 5.62012 22.6567 5.62012 26.86C5.61881 29.6501 6.16723 32.4132 7.23405 34.9913C8.30087 37.5694 9.86519 39.912 11.8376 41.8854C13.8101 43.8588 16.152 45.4242 18.7296 46.4922C21.3072 47.5603 24.07 48.11 26.8601 48.11Z" fill="white"/>
<path d="M85.41 9.49V24.07C85.41 32.59 79.6 35.52 72.56 35.52C65.1 35.52 59.72 32.06 59.72 24.11V9.49H66.12V24.26C66.12 27.95 68.79 30.17 72.49 30.17C75.87 30.17 79 28.4 79 23.81V9.49H85.41Z" fill="white"/>
<path d="M107.82 16.16C104.09 14.5 101.87 13.86 99.6801 13.86C97.4901 13.86 95.9101 14.69 95.9101 15.97C95.9101 19.85 108.99 18.76 108.99 27.73C108.99 32.66 104.84 35.52 99.1201 35.52C95.8548 35.5665 92.6424 34.6932 89.8501 33V27.5C93.5401 29.95 95.8501 30.82 98.6301 30.82C101.07 30.82 102.39 29.95 102.39 28.44C102.39 24.22 89.3201 25.77 89.3201 16.54C89.3201 12.09 93.1701 9.16 99.1201 9.16C102.13 9.19763 105.096 9.8796 107.82 11.16V16.16Z" fill="white"/>
<path d="M63 41.52H60.6V43.22H63V44.01H60.6V46.87H59.72V40.73H63V41.52Z" fill="white"/>
<path d="M65.5 40.73C66.74 40.73 67.5 41.38 67.5 42.45C67.5136 42.7737 67.4241 43.0933 67.2444 43.3629C67.0647 43.6325 66.804 43.8381 66.5 43.95C67.0747 44.4104 67.5422 44.9906 67.87 45.65C68.13 46.07 68.28 46.28 68.7 46.87H67.7L66.89 45.6C66.08 44.35 65.71 44.2 65.26 44.2H64.89V46.87H64V40.73H65.5ZM64.83 43.41H65.4C66.35 43.41 66.61 42.92 66.61 42.41C66.61 41.9 66.25 41.48 65.4 41.48H64.83V43.41Z" fill="white"/>
<path d="M71.7601 40.65C72.3764 40.6774 72.9711 40.8852 73.4703 41.2476C73.9696 41.6099 74.3515 42.1109 74.5686 42.6884C74.7857 43.2659 74.8284 43.8943 74.6915 44.4959C74.5546 45.0974 74.2441 45.6455 73.7985 46.0722C73.3529 46.4988 72.7918 46.7852 72.1849 46.8958C71.578 47.0065 70.952 46.9364 70.3845 46.6944C69.817 46.4525 69.3331 46.0492 68.9927 45.5346C68.6524 45.0201 68.4707 44.4169 68.4701 43.8C68.4668 43.3735 68.5507 42.9508 68.7167 42.5578C68.8827 42.1649 69.1273 41.8101 69.4353 41.5151C69.7434 41.2201 70.1086 40.9912 70.5084 40.8424C70.9081 40.6937 71.3341 40.6282 71.7601 40.65ZM71.7601 46.14C72.2211 46.1321 72.6695 45.9882 73.049 45.7263C73.4285 45.4645 73.7222 45.0963 73.8932 44.6681C74.0642 44.2399 74.1049 43.7707 74.0101 43.3195C73.9154 42.8682 73.6894 42.455 73.3606 42.1317C73.0318 41.8085 72.6149 41.5896 72.1621 41.5025C71.7093 41.4154 71.2408 41.464 70.8156 41.6422C70.3903 41.8204 70.0272 42.1203 69.7718 42.5042C69.5164 42.8881 69.3801 43.3389 69.3801 43.8C69.3759 44.1118 69.4349 44.4213 69.5535 44.7098C69.6721 44.9982 69.8479 45.2596 70.0703 45.4783C70.2927 45.6969 70.5571 45.8683 70.8475 45.982C71.1379 46.0957 71.4483 46.1495 71.7601 46.14Z" fill="white"/>
<path d="M81.6699 46.87H80.7899V42.09H80.7699L78.8799 44.46H78.7299L76.8399 42.09H76.8299V46.87H75.9399V40.73H76.7699L78.8099 43.25L80.8499 40.73H81.6699V46.87Z" fill="white"/>
<path d="M89.83 41.52H87.7V46.87H86.82V41.52H84.7V40.73H89.83V41.52Z" fill="white"/>
<path d="M95.7701 46.87H94.8901V44.19H91.4501V46.87H90.5601V40.73H91.4501V43.4H94.8901V40.73H95.7701V46.87Z" fill="white"/>
<path d="M100.59 41.52H97.9901V43.37H100.5V44.16H97.9901V46.07H100.67V46.87H97.1101V40.73H100.59V41.52Z" fill="white"/>
<path d="M109.3 46.87H108.4L107.58 45.06H105L104.22 46.87H103.32L105.96 40.69H106.58L109.3 46.87ZM105.3 44.26H107.21L106.21 42.04L105.3 44.26Z" fill="white"/>
<path d="M115.59 46.87H114.71V42.09H114.69L112.8 44.46H112.65L110.76 42.09H110.75V46.87H109.86V40.73H110.69L112.73 43.25L114.77 40.73H115.59V46.87Z" fill="white"/>
<path d="M120.37 41.52H117.77V43.37H120.28V44.16H117.77V46.07H120.45V46.87H116.89V40.73H120.37V41.52Z" fill="white"/>
<path d="M123 40.73C124.25 40.73 125 41.38 125 42.45C125.012 42.7734 124.922 43.0924 124.742 43.3616C124.563 43.6309 124.303 43.8367 124 43.95C124.571 44.4113 125.035 44.9914 125.36 45.65C125.62 46.07 125.78 46.28 126.2 46.87H125.1L124.29 45.6C123.48 44.35 123.11 44.2 122.66 44.2H122.29V46.87H121.41V40.73H123ZM122.34 43.41H122.91C123.85 43.41 124.12 42.92 124.11 42.41C124.1 41.9 123.76 41.48 122.91 41.48H122.34V43.41Z" fill="white"/>
<path d="M127.44 40.73H126.56V46.87H127.44V40.73Z" fill="white"/>
<path d="M133.85 42.09C133.22 41.6867 132.489 41.4685 131.74 41.46C131.422 41.4436 131.105 41.4924 130.807 41.6034C130.509 41.7144 130.237 41.8852 130.007 42.1054C129.778 42.3255 129.596 42.5904 129.472 42.8835C129.349 43.1767 129.287 43.492 129.29 43.81C129.285 44.1303 129.347 44.4482 129.472 44.7432C129.596 45.0383 129.781 45.304 130.015 45.5233C130.248 45.7427 130.525 45.9108 130.827 46.017C131.13 46.1232 131.451 46.1651 131.77 46.14C132.539 46.1155 133.284 45.8727 133.92 45.44V46.44C133.234 46.8051 132.467 46.9908 131.69 46.98C131.27 47.0029 130.85 46.9412 130.455 46.7987C130.059 46.6562 129.696 46.4357 129.388 46.1503C129.079 45.865 128.831 45.5205 128.658 45.1374C128.485 44.7543 128.39 44.3403 128.38 43.92C128.373 43.4813 128.456 43.0458 128.624 42.6406C128.792 42.2355 129.042 41.8694 129.359 41.5653C129.675 41.2612 130.051 41.0256 130.462 40.8733C130.874 40.721 131.312 40.6552 131.75 40.68C132.477 40.7006 133.192 40.8708 133.85 41.18V42.09Z" fill="white"/>
<path d="M140.21 46.87H139.31L138.49 45.06H135.88L135.11 46.87H134.21L136.85 40.69H137.47L140.21 46.87ZM136.21 44.26H138.11L137.11 42.04L136.21 44.26Z" fill="white"/>
<path d="M146.47 46.87H145.72L141.61 42.14V46.87H140.79V40.73H141.49L145.65 45.48V40.73H146.47V46.87Z" fill="white"/>
<path d="M152.42 40.73C152.672 40.6883 152.929 40.7031 153.174 40.7732C153.42 40.8434 153.646 40.9672 153.837 41.1356C154.029 41.3041 154.18 41.513 154.281 41.7472C154.382 41.9815 154.429 42.2352 154.42 42.49C154.42 43.49 153.78 44.21 152.35 44.21H151.44V46.87H150.55V40.73H152.42ZM151.42 43.42H152.42C152.558 43.4311 152.697 43.4134 152.827 43.3681C152.958 43.3229 153.078 43.251 153.179 43.157C153.281 43.063 153.362 42.949 153.417 42.8221C153.472 42.6953 153.5 42.5583 153.5 42.42C153.5 41.97 153.26 41.49 152.5 41.49H151.5L151.42 43.42Z" fill="white"/>
<path d="M158.62 41.52H156.02V43.37H158.53V44.16H156.02V46.07H158.7V46.87H155.14V40.73H158.62V41.52Z" fill="white"/>
<path d="M162.66 40.65C163.276 40.6794 163.869 40.8887 164.367 41.2522C164.865 41.6157 165.245 42.1173 165.461 42.6949C165.677 43.2724 165.718 43.9005 165.58 44.5013C165.442 45.1022 165.131 45.6493 164.685 46.075C164.239 46.5006 163.678 46.7861 163.071 46.896C162.465 47.0059 161.839 46.9353 161.272 46.6931C160.705 46.4509 160.222 46.0477 159.882 45.5334C159.542 45.0192 159.361 44.4165 159.36 43.8C159.357 43.3726 159.441 42.949 159.607 42.5554C159.774 42.1617 160.019 41.8064 160.329 41.5113C160.638 41.2161 161.004 40.9875 161.405 40.8393C161.806 40.6912 162.233 40.6268 162.66 40.65ZM162.66 46.14C163.121 46.1302 163.568 45.9846 163.946 45.7216C164.324 45.4585 164.616 45.0897 164.786 44.6614C164.955 44.233 164.995 43.7642 164.899 43.3136C164.803 42.863 164.576 42.4508 164.247 42.1285C163.918 41.8062 163.501 41.5883 163.048 41.502C162.596 41.4157 162.128 41.4648 161.703 41.6433C161.279 41.8218 160.916 42.1217 160.661 42.5053C160.406 42.889 160.27 43.3393 160.27 43.8C160.264 44.1131 160.323 44.4241 160.441 44.7139C160.56 45.0037 160.737 45.2661 160.961 45.4852C161.184 45.7043 161.45 45.8754 161.743 45.988C162.035 46.1006 162.347 46.1523 162.66 46.14Z" fill="white"/>
<path d="M168.73 40.73C168.982 40.6883 169.239 40.7031 169.484 40.7732C169.73 40.8434 169.956 40.9672 170.148 41.1356C170.339 41.3041 170.491 41.513 170.591 41.7472C170.692 41.9815 170.739 42.2352 170.73 42.49C170.73 43.49 170.08 44.21 168.66 44.21H167.74V46.87H166.85V40.73H168.73ZM167.73 43.42H168.73C168.868 43.4311 169.007 43.4134 169.137 43.3681C169.268 43.3229 169.388 43.251 169.49 43.157C169.591 43.063 169.672 42.949 169.727 42.8221C169.782 42.6953 169.811 42.5583 169.81 42.42C169.81 41.97 169.56 41.49 168.76 41.49H167.76L167.73 43.42Z" fill="white"/>
<path d="M172.32 46.07H175.09V46.87H171.44V40.73H172.32V46.07Z" fill="white"/>
<path d="M179.25 41.52H176.65V43.37H179.16V44.16H176.65V46.07H179.33V46.87H175.77V40.73H179.25V41.52Z" fill="white"/>
<path d="M1.86098e-06 26.86C-0.0019759 32.1752 1.57249 37.3717 4.52425 41.7919C7.476 46.2122 11.6724 49.6578 16.5827 51.6927C21.4929 53.7277 26.8964 54.2607 32.1096 53.2242C37.3228 52.1877 42.1115 49.6284 45.87 45.87C49.6284 42.1115 52.1877 37.3228 53.2242 32.1096C54.2607 26.8964 53.7277 21.4929 51.6927 16.5827C49.6578 11.6724 46.2122 7.476 41.7919 4.52425C37.3717 1.57249 32.1752 -0.0019759 26.86 1.86098e-06C19.7387 0.00794234 12.9114 2.84038 7.87588 7.87588C2.84038 12.9114 0.00794234 19.7387 1.86098e-06 26.86ZM0.440002 26.86C0.440002 21.6346 1.98951 16.5266 4.89257 12.1818C7.79564 7.83709 11.9219 4.45077 16.7495 2.4511C21.5771 0.451437 26.8893 -0.0717669 32.0143 0.947655C37.1393 1.96708 41.8469 4.48334 45.5418 8.17824C49.2367 11.8731 51.7529 16.5807 52.7723 21.7057C53.7918 26.8307 53.2686 32.1429 51.2689 36.9705C49.2692 41.7981 45.8829 45.9244 41.5382 48.8274C37.1934 51.7305 32.0854 53.28 26.86 53.28C19.8562 53.2694 13.1423 50.4825 8.18993 45.5301C3.23751 40.5777 0.450582 33.8638 0.440002 26.86Z" fill="#002F6C"/>
<path d="M5.3999 26.86C5.39793 31.1072 6.65569 35.2596 9.01408 38.7919C11.3725 42.3241 14.7255 45.0775 18.6491 46.7038C22.5726 48.33 26.8903 48.756 31.056 47.9279C35.2217 47.0998 39.0482 45.0548 42.0515 42.0516C45.0547 39.0483 47.0997 35.2218 47.9278 31.0561C48.756 26.8904 48.3299 22.5727 46.7037 18.6492C45.0774 14.7256 42.324 11.3726 38.7918 9.01418C35.2595 6.65578 31.1071 5.39802 26.8599 5.4C21.1708 5.40793 15.717 7.67144 11.6942 11.6943C7.67135 15.7171 5.40784 21.1709 5.3999 26.86ZM5.8399 26.86C5.8399 22.7066 7.07153 18.6465 9.37904 15.193C11.6866 11.7396 14.9663 9.04797 18.8036 7.45853C22.6408 5.86909 26.8632 5.45322 30.9368 6.26351C35.0104 7.0738 38.7522 9.07385 41.6891 12.0108C44.6261 14.9477 46.6261 18.6895 47.4364 22.7631C48.2467 26.8367 47.8308 31.0591 46.2414 34.8963C44.6519 38.7336 41.9603 42.0133 38.5069 44.3209C35.0534 46.6284 30.9933 47.86 26.8399 47.86C21.2704 47.86 15.9289 45.6475 11.9907 41.7092C8.0524 37.771 5.8399 32.4295 5.8399 26.86Z" fill="#002F6C"/>
<path d="M39.1899 34.45H14.6399V38.3H39.1899V34.45Z" fill="#002F6C"/>
<path d="M39.1899 12.11H14.6399V19.23H39.1899V12.11Z" fill="#002F6C"/>
<path d="M39.1899 12.11H14.6399V19.23H39.1899V12.11Z" fill="#002F6C"/>
<path d="M50.82 22.54L50.81 23.55L50.21 22.73L49.24 23.05L49.84 22.23L49.24 21.42L50.21 21.75L50.82 20.93V21.93L51.76 22.24L50.82 22.54Z" fill="#002F6C"/>
<path d="M2.73004 21.93V20.92L3.34004 21.74L4.32004 21.43L3.71004 22.24L4.31004 23.05L3.34004 22.73L2.73004 23.55V22.54L1.79004 22.23L2.73004 21.93Z" fill="#002F6C"/>
<path d="M4.66012 14.31L6.15012 15C6.32323 15.0741 6.47753 15.1861 6.60168 15.3276C6.72583 15.4692 6.81666 15.6368 6.86751 15.8181C6.91835 15.9994 6.92791 16.1898 6.89548 16.3753C6.86305 16.5608 6.78946 16.7367 6.68012 16.89C6.62611 17.0706 6.53224 17.2369 6.40545 17.3764C6.27865 17.5159 6.12216 17.6252 5.9475 17.6963C5.77284 17.7673 5.58447 17.7982 5.39628 17.7867C5.20808 17.7753 5.02486 17.7217 4.86012 17.63L3.37012 16.89L3.69012 16.24L5.20012 17C5.28305 17.0445 5.37453 17.0707 5.46843 17.0769C5.56234 17.0832 5.65648 17.0692 5.74456 17.0361C5.83264 17.0029 5.91261 16.9513 5.97911 16.8848C6.0456 16.8182 6.09709 16.7381 6.13012 16.65C6.18244 16.5645 6.21552 16.4687 6.22705 16.3691C6.23857 16.2696 6.22828 16.1687 6.19687 16.0735C6.16546 15.9783 6.1137 15.8912 6.04518 15.818C5.97667 15.7449 5.89304 15.6875 5.80012 15.65L4.34012 15L4.66012 14.31Z" fill="#002F6C"/>
<path d="M9.24991 12.73L8.89991 13.23L6.43991 13.48L7.96991 14.56L7.54991 15.15L5.15991 13.47L5.53991 12.93L7.89991 12.67L6.43991 11.65L6.85991 11.05L9.24991 12.73Z" fill="#002F6C"/>
<path d="M7.95281 9.8166L7.47168 10.3656L9.67524 12.2967L10.1564 11.7477L7.95281 9.8166Z" fill="#002F6C"/>
<path d="M10.8299 7.73L10.0599 8.46L11.6999 10.2L11.1599 10.7L9.52989 8.96L8.74989 9.69L8.38989 9.29L10.4599 7.34L10.8299 7.73Z" fill="#002F6C"/>
<path d="M14.5 7.99L12.76 9.26L11.03 6.9L12.75 5.64L13.07 6.08L11.94 6.9L12.3 7.4L13.38 6.61L13.69 7.04L12.62 7.83L13.03 8.4L14.19 7.56L14.5 7.99Z" fill="#002F6C"/>
<path d="M14.61 4.54C14.78 4.42116 14.9735 4.33992 15.1774 4.30171C15.3813 4.2635 15.591 4.26919 15.7926 4.31839C15.9941 4.36759 16.1828 4.45918 16.3462 4.58706C16.5096 4.71494 16.6438 4.87616 16.74 5.06C16.8474 5.24565 16.9119 5.45295 16.9289 5.66675C16.9459 5.88055 16.915 6.09544 16.8383 6.29575C16.7616 6.49605 16.6412 6.67669 16.4858 6.82449C16.3304 6.97228 16.1439 7.08349 15.94 7.15L14.88 7.73L13.48 5.16L14.61 4.54ZM15.26 6.91L15.68 6.68C15.7975 6.63168 15.9028 6.55793 15.9883 6.46406C16.0739 6.3702 16.1377 6.25854 16.1749 6.13711C16.2122 6.01568 16.2222 5.8875 16.204 5.76178C16.1859 5.63606 16.1401 5.51592 16.07 5.41C16.0194 5.29306 15.9432 5.18899 15.8469 5.10549C15.7507 5.02198 15.6369 4.96118 15.514 4.92758C15.3911 4.89397 15.2623 4.88843 15.1369 4.91135C15.0116 4.93427 14.893 4.98507 14.79 5.06L14.38 5.28L15.26 6.91Z" fill="#002F6C"/>
<path d="M20.1099 3.08C19.7811 3.00215 19.4387 3.00215 19.1099 3.08C18.8599 3.16 18.7299 3.3 18.7699 3.44C18.9099 3.86 20.2899 3.28 20.6099 4.25C20.7799 4.79 20.4299 5.25 19.8199 5.45C19.4648 5.56611 19.0855 5.5868 18.7199 5.51L18.5699 5C18.9141 5.11367 19.2857 5.11367 19.6299 5C19.8999 4.92 20.0099 4.78 19.9599 4.61C19.8099 4.16 18.4499 4.79 18.1199 3.79C17.9599 3.31 18.2699 2.85 18.9199 2.64C19.2428 2.538 19.584 2.50729 19.9199 2.55L20.1099 3.08Z" fill="#002F6C"/>
<path d="M23.43 2.14L22.39 2.34L22.85 4.69L22.14 4.83L21.68 2.48L20.64 2.69L20.53 2.16L23.33 1.61L23.43 2.14Z" fill="#002F6C"/>
<path d="M26.74 4.27L26 4.33L25.71 3.78L24.41 3.88L24.24 4.47L23.47 4.53L24.42 1.53L25.26 1.47L26.74 4.27ZM24.86 2.19L24.52 3.35L25.42 3.28L24.86 2.19Z" fill="#002F6C"/>
<path d="M29.2399 2.02L28.1799 1.98L28.0899 4.36L27.3599 4.34L27.4499 1.95L26.3899 1.91L26.4099 1.37L29.2599 1.48L29.2399 2.02Z" fill="#002F6C"/>
<path d="M31.64 4.81001L29.51 4.46001L29.98 1.57001L32.08 1.92001L31.99 2.45001L30.61 2.22001L30.51 2.83001L31.83 3.04001L31.74 3.57001L30.43 3.36001L30.31 4.05001L31.72 4.28001L31.64 4.81001Z" fill="#002F6C"/>
<path d="M34.5801 3.37C34.3431 3.15001 34.0642 2.97996 33.7601 2.87C33.5101 2.8 33.3201 2.87 33.2801 2.98C33.1601 3.41 34.6301 3.7 34.3501 4.68C34.1901 5.22 33.6501 5.4 33.0201 5.23C32.6608 5.13434 32.3353 4.94041 32.0801 4.67L32.2601 4.06C32.4697 4.35884 32.7719 4.58026 33.1201 4.69C33.3801 4.77 33.5601 4.69 33.6001 4.55C33.7301 4.09 32.2501 3.85 32.5401 2.84C32.6801 2.35 33.1901 2.15 33.8401 2.34C34.1701 2.43367 34.4744 2.60124 34.7301 2.83L34.5801 3.37Z" fill="#002F6C"/>
<path d="M37.9199 7.16001L37.2099 6.82001V6.20001L36.0199 5.64001L35.5799 6.07001L34.8799 5.75001L37.2199 3.60001L37.9999 4.00001L37.9199 7.16001ZM37.3199 4.41001L36.4399 5.26001L37.2599 5.64001L37.3199 4.41001Z" fill="#002F6C"/>
<path d="M41.45 7C41.255 6.67471 40.9924 6.39508 40.68 6.18C40.5798 6.0907 40.4614 6.02416 40.3331 5.98495C40.2047 5.94573 40.0693 5.93478 39.9363 5.95283C39.8033 5.97088 39.6758 6.01752 39.5625 6.08953C39.4492 6.16154 39.3528 6.25722 39.28 6.37C39.2144 6.47605 39.1718 6.59472 39.1549 6.7183C39.1381 6.84188 39.1474 6.96762 39.1823 7.08737C39.2172 7.20711 39.2769 7.31819 39.3574 7.41339C39.438 7.5086 39.5377 7.5858 39.65 7.64C39.7888 7.73909 39.9506 7.80105 40.12 7.82L40.3 7.53L40 7.28L40.29 6.83L41.29 7.46L40.63 8.46C40.1887 8.48964 39.7507 8.36601 39.39 8.11C39.1967 8.0148 39.0251 7.88056 38.8862 7.71575C38.7473 7.55094 38.644 7.35913 38.583 7.15243C38.5219 6.94572 38.5043 6.7286 38.5314 6.51476C38.5584 6.30092 38.6294 6.09501 38.74 5.91C38.8651 5.7311 39.026 5.58023 39.2126 5.46703C39.3993 5.35383 39.6074 5.28078 39.8238 5.25255C40.0403 5.22432 40.2602 5.24153 40.4696 5.30308C40.679 5.36462 40.8733 5.46915 41.04 5.61C41.3764 5.82307 41.6629 6.10617 41.88 6.44L41.45 7Z" fill="#002F6C"/>
<path d="M42.41 10.52L40.78 9.11L42.69 6.89L44.3 8.28L43.95 8.69L42.89 7.78L42.49 8.24L43.5 9.11L43.15 9.52L42.14 8.65L41.68 9.18L42.76 10.12L42.41 10.52Z" fill="#002F6C"/>
<path d="M44.72 13.05L44.31 12.59L44.65 10.13L43.24 11.38L42.76 10.83L44.95 8.89L45.4 9.39L45.09 11.75L46.43 10.56L46.91 11.11L44.72 13.05Z" fill="#002F6C"/>
<path d="M46.7399 15.64C46.3831 15.4521 46.0828 15.1725 45.8699 14.83C45.7342 14.6658 45.6344 14.475 45.5767 14.27C45.519 14.065 45.5048 13.8501 45.5349 13.6393C45.565 13.4284 45.6388 13.2262 45.7516 13.0455C45.8644 12.8648 46.0137 12.7097 46.1899 12.59C46.3772 12.4789 46.5853 12.4075 46.8014 12.3801C47.0175 12.3528 47.2369 12.3701 47.4459 12.4311C47.655 12.492 47.8494 12.5953 48.0169 12.7344C48.1844 12.8736 48.3216 13.0456 48.4199 13.24C48.6249 13.5363 48.749 13.881 48.7799 14.24L48.2399 14.59C48.2232 14.2371 48.1201 13.8938 47.9399 13.59C47.8805 13.4776 47.7983 13.3789 47.6985 13.3003C47.5986 13.2216 47.4835 13.1648 47.3603 13.1333C47.2372 13.1019 47.1088 13.0966 46.9835 13.1178C46.8582 13.139 46.7388 13.1862 46.6328 13.2564C46.5269 13.3265 46.4368 13.4181 46.3684 13.5252C46.3 13.6323 46.2547 13.7526 46.2356 13.8782C46.2165 14.0038 46.2239 14.1321 46.2574 14.2547C46.2908 14.3773 46.3496 14.4915 46.4299 14.59C46.6526 14.891 46.944 15.1344 47.2799 15.3L46.7399 15.64Z" fill="#002F6C"/>
<path d="M48.3401 16.36L49.2601 14.66L49.6401 15.46L49.0801 16.42L50.1801 16.61L50.5501 17.41L48.6501 17.02L47.4101 17.61L47.1001 16.95L48.3401 16.36Z" fill="#002F6C"/>
<path d="M4.39563 27.3914L1.46777 27.5034L1.49567 28.2329L4.42353 28.1209L4.39563 27.3914Z" fill="#002F6C"/>
<path d="M1.95001 32.06L1.86001 31.45L3.48001 29.58L1.62001 29.85L1.51001 29.13L4.41001 28.71L4.51001 29.37L2.97001 31.17L4.74001 30.91L4.84001 31.63L1.95001 32.06Z" fill="#002F6C"/>
<path d="M5.20991 34.82L4.90991 33.8L2.61991 34.49L2.40991 33.79L4.69991 33.1L4.39991 32.09L4.90991 31.94L5.72991 34.67L5.20991 34.82Z" fill="#002F6C"/>
<path d="M4.05994 38.12L3.18994 36.15L5.86994 34.97L6.71994 36.91L6.22994 37.13L5.66994 35.85L5.10994 36.1L5.63994 37.32L5.14994 37.54L4.61994 36.31L3.96994 36.6L4.54994 37.91L4.05994 38.12Z" fill="#002F6C"/>
<path d="M7.60994 38.46C7.67918 38.5577 7.72798 38.6684 7.75343 38.7854C7.77887 38.9025 7.78044 39.0234 7.75803 39.1411C7.73562 39.2587 7.6897 39.3706 7.62302 39.4701C7.55633 39.5696 7.47025 39.6546 7.36994 39.72C7.2353 39.7991 7.07956 39.8349 6.92389 39.8223C6.76822 39.8098 6.62019 39.7496 6.49994 39.65C6.49994 39.98 6.25994 40.24 5.72994 41.04L5.31994 40.35C5.69994 39.76 6.11994 39.35 5.91994 39.03L5.80994 38.85L4.80994 39.46L4.43994 38.83L6.95994 37.34L7.60994 38.46ZM6.27994 38.58L6.46994 38.91C6.57994 39.08 6.74994 39.21 6.95994 39.08C7.16994 38.95 7.17994 38.79 7.03994 38.56L6.84994 38.24L6.27994 38.58Z" fill="#002F6C"/>
<path d="M7.92008 43.86L7.54008 43.38L8.00008 40.95L6.53008 42.12L6.08008 41.55L8.36008 39.72L8.78008 40.24L8.36008 42.58L9.76008 41.47L10.2101 42.03L7.92008 43.86Z" fill="#002F6C"/>
<path d="M10.7801 46.6L10.2101 46.07L10.4201 45.48L9.4701 44.59L8.9101 44.86L8.3501 44.34L11.2001 43L11.8201 43.57L10.7801 46.6ZM11.0001 43.8L10.0001 44.34L10.6601 44.96L11.0001 43.8Z" fill="#002F6C"/>
<path d="M14.38 46.26L13.53 45.63L12.11 47.55L11.53 47.12L12.94 45.2L12.09 44.57L12.41 44.14L14.7 45.83L14.38 46.26Z" fill="#002F6C"/>
<path d="M15.0461 45.9954L13.5449 48.5116L14.1718 48.8856L15.673 46.3694L15.0461 45.9954Z" fill="#002F6C"/>
<path d="M16.3299 50C16.1288 49.9329 15.9441 49.8243 15.7878 49.6812C15.6315 49.538 15.5071 49.3635 15.4226 49.1691C15.3382 48.9747 15.2956 48.7647 15.2977 48.5527C15.2998 48.3408 15.3464 48.1316 15.4347 47.9389C15.5229 47.7462 15.6508 47.5742 15.8099 47.4342C15.969 47.2941 16.1558 47.1891 16.3581 47.126C16.5605 47.0629 16.7738 47.0431 16.9843 47.0679C17.1948 47.0927 17.3978 47.1616 17.5799 47.27C17.781 47.3371 17.9657 47.4457 18.122 47.5888C18.2783 47.732 18.4028 47.9065 18.4872 48.1009C18.5717 48.2953 18.6142 48.5053 18.6122 48.7173C18.6101 48.9292 18.5634 49.1384 18.4752 49.3311C18.3869 49.5238 18.2591 49.6958 18.1 49.8358C17.9409 49.9759 17.7541 50.0809 17.5517 50.144C17.3494 50.2071 17.136 50.2269 16.9255 50.2021C16.715 50.1773 16.5121 50.1084 16.3299 50ZM17.3299 47.82C17.1668 47.7511 16.987 47.7319 16.8131 47.7647C16.6391 47.7975 16.4787 47.8809 16.3519 48.0045C16.2251 48.128 16.1375 48.2862 16.1001 48.4592C16.0628 48.6323 16.0773 48.8125 16.1419 48.9774C16.2064 49.1422 16.3182 49.2843 16.4631 49.386C16.6081 49.4876 16.7798 49.5443 16.9567 49.5488C17.1337 49.5534 17.3081 49.5056 17.4581 49.4116C17.6081 49.3175 17.727 49.1813 17.7999 49.02C17.8555 48.9116 17.8874 48.7925 17.8935 48.6708C17.8996 48.5491 17.8798 48.4275 17.8354 48.3141C17.7909 48.2006 17.7229 48.0979 17.6358 48.0127C17.5486 47.9275 17.4444 47.8618 17.3299 47.82Z" fill="#002F6C"/>
<path d="M21.5199 51.75L20.9299 51.59L19.8699 49.35L19.3699 51.16L18.6699 50.97L19.4499 48.14L20.0899 48.32L21.1199 50.46L21.5999 48.74L22.2999 48.93L21.5199 51.75Z" fill="#002F6C"/>
<path d="M25.4499 52.29L24.6699 52.19L24.4999 51.59L23.1999 51.43L22.9199 51.98L22.1499 51.89L23.6699 49.12L24.5099 49.22L25.4499 52.29ZM23.9999 49.87L23.4599 51L24.3499 51.11L23.9999 49.87Z" fill="#002F6C"/>
<path d="M28.28 52.26L26.05 52.28L26.03 49.35L26.76 49.34L26.77 51.73L28.28 51.72V52.26Z" fill="#002F6C"/>
<path d="M31 49C31.1973 48.9403 31.4051 48.9234 31.6094 48.9504C31.8138 48.9774 32.0101 49.0476 32.1851 49.1565C32.3602 49.2653 32.5101 49.4102 32.6247 49.5815C32.7394 49.7529 32.8162 49.9467 32.85 50.15C33.01 50.98 32.59 51.69 31.45 51.9L30.26 52.12L29.73 49.24L31 49ZM30.88 51.46L31.35 51.37C31.594 51.3236 31.8095 51.1821 31.9493 50.9768C32.089 50.7714 32.1414 50.519 32.095 50.275C32.0486 50.031 31.9071 49.8154 31.7018 49.6757C31.4964 49.536 31.244 49.4836 31 49.53L30.54 49.61L30.88 51.46Z" fill="#002F6C"/>
<path d="M35.9 50.68L33.84 51.34L32.95 48.56L34.97 47.91L35.1399 48.41L33.7999 48.84L33.99 49.43L35.2599 49.02L35.43 49.53L34.16 49.94L34.3699 50.61L35.7299 50.17L35.9 50.68Z" fill="#002F6C"/>
<path d="M37.9401 49.83L37.6501 49.97L35.1101 47.88L35.8301 47.54L37.2401 48.73L37.2001 46.91L37.9101 46.57L37.9401 49.83Z" fill="#002F6C"/>
<path d="M41.4701 47.77L39.6401 48.92L38.0801 46.44L39.8801 45.31L40.1701 45.76L38.9801 46.51L39.3101 47.03L40.4401 46.31L40.7301 46.77L39.6001 47.48L39.9701 48.08L41.1801 47.31L41.4701 47.77Z" fill="#002F6C"/>
<path d="M43.84 45.9L42.1 47.3L40.27 45.02L40.84 44.57L42.34 46.43L43.5 45.49L43.84 45.9Z" fill="#002F6C"/>
<path d="M45.4501 44.35C45.2329 44.5445 44.964 44.6719 44.6759 44.7169C44.3879 44.7619 44.0929 44.7225 43.8267 44.6036C43.5606 44.4846 43.3345 44.2911 43.1759 44.0465C43.0173 43.8019 42.9329 43.5166 42.9329 43.225C42.9329 42.9334 43.0173 42.6481 43.1759 42.4035C43.3345 42.1589 43.5606 41.9654 43.8267 41.8464C44.0929 41.7275 44.3879 41.6881 44.6759 41.7331C44.964 41.7781 45.2329 41.9055 45.4501 42.1C45.6016 42.2456 45.7222 42.4203 45.8045 42.6136C45.8869 42.8069 45.9293 43.0149 45.9293 43.225C45.9293 43.4351 45.8869 43.6431 45.8045 43.8364C45.7222 44.0297 45.6016 44.2044 45.4501 44.35ZM43.7001 42.71C43.62 42.7954 43.5575 42.8957 43.5161 43.0052C43.4748 43.1147 43.4554 43.2313 43.4591 43.3483C43.4628 43.4653 43.4896 43.5804 43.5378 43.6871C43.586 43.7938 43.6547 43.8899 43.7401 43.97C43.8254 44.0501 43.9257 44.1126 44.0353 44.154C44.1448 44.1953 44.2614 44.2147 44.3784 44.2109C44.4954 44.2072 44.6105 44.1805 44.7172 44.1323C44.8238 44.0841 44.92 44.0154 45.0001 43.93C45.0914 43.8502 45.1645 43.7518 45.2146 43.6414C45.2648 43.5311 45.2907 43.4112 45.2907 43.29C45.2907 43.1688 45.2648 43.0489 45.2146 42.9385C45.1645 42.8282 45.0914 42.7298 45.0001 42.65C44.9144 42.5636 44.8115 42.4961 44.6981 42.4518C44.5847 42.4076 44.4633 42.3877 44.3417 42.3934C44.2202 42.399 44.1011 42.4301 43.9923 42.4847C43.8835 42.5392 43.7874 42.616 43.7101 42.71" fill="#002F6C"/>
<path d="M45.42 39.68C45.4777 39.5689 45.5586 39.4713 45.6571 39.394C45.7556 39.3166 45.8694 39.2611 45.9911 39.2313C46.1127 39.2014 46.2394 39.1979 46.3625 39.2209C46.4856 39.2439 46.6024 39.293 46.705 39.3648C46.8077 39.4366 46.8938 39.5294 46.9577 39.6372C47.0216 39.7449 47.0617 39.8651 47.0754 39.9896C47.0892 40.1141 47.0761 40.2401 47.0373 40.3591C46.9984 40.4782 46.9345 40.5876 46.85 40.68L46.52 41.16L47.52 41.83L47.1 42.43L44.71 40.74L45.42 39.68ZM46.08 40.85L46.27 40.57C46.47 40.3 46.44 40.13 46.27 40C46.1 39.87 45.91 39.92 45.68 40.25L45.53 40.46L46.08 40.85Z" fill="#002F6C"/>
<path d="M47.3299 36.33L47.6199 35.77L50.2299 37.09L49.8999 37.74L48.2699 36.91L48.7299 38.03L48.6799 38.13L47.4999 38.42L49.1299 39.25L48.7999 39.9L46.1899 38.57L46.4799 38.01L47.8699 37.66L47.3299 36.33Z" fill="#002F6C"/>
<path d="M51.25 34.17L50.55 36.22L47.78 35.27L48.48 33.26L48.98 33.43L48.53 34.75L49.11 34.95L49.54 33.69L50.05 33.86L49.62 35.13L50.28 35.35L50.75 34L51.25 34.17Z" fill="#002F6C"/>
<path d="M52.0601 30.47L51.9501 31.07L49.7901 32.3L51.6301 32.66L51.4901 33.38L48.6201 32.81L48.7501 32.15L50.8101 30.97L49.0501 30.62L49.1901 29.91L52.0601 30.47Z" fill="#002F6C"/>
<path d="M49.92 26.77L49.86 27.83L52.25 27.96L52.21 28.69L49.82 28.56L49.76 29.62L49.23 29.59L49.38 26.74L49.92 26.77Z" fill="#002F6C"/>
<path fill-rule="evenodd" clip-rule="evenodd" d="M23 29.33C22.9847 29.2972 22.9604 29.2695 22.93 29.25H22.87C22.87 29.25 22.87 29.33 22.87 29.38V29.43C22.8121 29.4712 22.7585 29.5181 22.71 29.57C22.7783 29.556 22.8452 29.5359 22.91 29.51H22.96H23.01" fill="#002F6C"/>
<path fill-rule="evenodd" clip-rule="evenodd" d="M24.2999 22.46C24.3163 22.4642 24.3335 22.4642 24.3499 22.46L24.4099 22.6C24.4085 22.5767 24.4085 22.5533 24.4099 22.53C24.3984 22.4863 24.3779 22.4455 24.3499 22.41C24.3499 22.41 24.2999 22.41 24.2799 22.41H24.1799" fill="#002F6C"/>
<path fill-rule="evenodd" clip-rule="evenodd" d="M24.5699 23.26L24.4799 23.35C24.4799 23.35 24.3999 23.43 24.3499 23.43C24.3301 23.434 24.3097 23.434 24.2899 23.43C24.2899 23.38 24.2899 23.35 24.2899 23.31C24.2846 23.2938 24.2846 23.2762 24.2899 23.26C24.2899 23.26 24.2399 23.31 24.2199 23.33L23.9999 23.5L23.9299 23.57L23.8599 23.63L23.7999 23.69L23.7299 23.75H23.6799H23.9499H24.0399H24.1599H24.2599H24.3099V23.7C24.3099 23.7 24.3099 23.7 24.3099 23.64C24.3099 23.58 24.3099 23.64 24.3099 23.59L24.3699 23.45C24.3797 23.4106 24.3797 23.3694 24.3699 23.33L24.2699 23.48" fill="#002F6C"/>
<path fill-rule="evenodd" clip-rule="evenodd" d="M23.7199 23.42C23.6908 23.4441 23.664 23.4709 23.6399 23.5C23.6399 23.5 23.5799 23.56 23.5399 23.59L23.4399 23.68C23.4235 23.6842 23.4063 23.6842 23.3899 23.68V23.73H23.4899L23.6899 23.51C23.758 23.4371 23.8122 23.3524 23.8499 23.26" fill="#002F6C"/>
<path fill-rule="evenodd" clip-rule="evenodd" d="M23.19 23.56C23.1564 23.5783 23.126 23.6019 23.1 23.63C23.0906 23.6627 23.0906 23.6973 23.1 23.73H23V23.68" fill="#002F6C"/>
<path fill-rule="evenodd" clip-rule="evenodd" d="M22.7901 23.63H22.7001H22.6501C22.6425 23.6256 22.6339 23.6233 22.6251 23.6233C22.6163 23.6233 22.6077 23.6256 22.6001 23.63C22.6092 23.6353 22.6196 23.638 22.6301 23.638C22.6406 23.638 22.651 23.6353 22.6601 23.63H22.7101" fill="#002F6C"/>
<path fill-rule="evenodd" clip-rule="evenodd" d="M36.9299 24H36.7399H36.6799V24.05C36.6799 24.05 36.6799 24.05 36.7299 24.05L36.9999 24" fill="#002F6C"/>
<path fill-rule="evenodd" clip-rule="evenodd" d="M37.38 24C37.38 24 37.38 24 37.38 24.05H37.48C37.41 24.05 37.37 24.05 37.29 24.05" fill="#002F6C"/>
<path fill-rule="evenodd" clip-rule="evenodd" d="M26.83 24.76C26.8008 24.7219 26.7632 24.6911 26.72 24.67L26.66 24.61L26.58 24.54H26.52H26.47C26.4355 24.5162 26.3987 24.4961 26.36 24.48H26.31H26.17H26.03H25.93H25.88H25.52L25.76 24.54C25.8337 24.565 25.9041 24.5986 25.97 24.64C25.97 24.64 25.97 24.69 25.97 24.74V24.8H26.06C26.09 24.7774 26.1239 24.7605 26.16 24.75H26.21H26.26H26.31C26.3192 24.7793 26.3192 24.8107 26.31 24.84C26.3138 24.8598 26.3138 24.8802 26.31 24.9C26.266 24.9339 26.2315 24.9787 26.21 25.03C26.21 25.03 26.21 25.03 26.3 25.03H26.37H26.45C26.45 25.03 26.57 24.94 26.63 24.95C26.6345 24.9765 26.6345 25.0035 26.63 25.03L26.58 25.1V25.16V25.21C26.58 25.21 26.58 25.21 26.58 25.26L26.73 25.18C26.73 25.18 26.79 25.18 26.8 25.13C26.81 25.08 26.8 25.13 26.85 25.13H26.93C26.93 25.13 26.99 25.13 27 25.13C27.01 25.13 27 25.13 27 25.2C26.9949 25.223 26.9949 25.2469 27 25.27C27.08 25.27 27.12 25.21 27.19 25.19C27.26 25.17 27.25 25.19 27.27 25.11C27.29 25.03 27.19 25.04 27.14 25.01" fill="#002F6C"/>
<path fill-rule="evenodd" clip-rule="evenodd" d="M33.51 24.49H33.62H33.68C33.68 24.49 33.68 24.43 33.68 24.39L33.51 24.49Z" fill="#002F6C"/>
<path fill-rule="evenodd" clip-rule="evenodd" d="M26.79 25.26H26.71H26.62L26.52 25.32H26.61H26.69L26.76 25.27C26.8082 25.2118 26.8618 25.1582 26.92 25.11L26.67 25.22" fill="#002F6C"/>
<path fill-rule="evenodd" clip-rule="evenodd" d="M20.8499 25.86C20.8499 25.86 20.8499 25.86 20.7899 25.86L20.6299 25.96H20.5699C20.5284 25.9915 20.4914 26.0285 20.4599 26.07C20.4548 26.093 20.4548 26.117 20.4599 26.14H20.5099H20.5699H20.6199H20.6699L20.7699 26.08L20.8499 26.02C20.8499 26.02 20.8499 26.02 20.8999 26.02C20.8999 26.02 20.8999 26.02 20.8999 25.97C20.8947 25.9609 20.8919 25.9505 20.8919 25.94C20.8919 25.9295 20.8947 25.9191 20.8999 25.91" fill="#002F6C"/>
<path fill-rule="evenodd" clip-rule="evenodd" d="M21.3 25.92H21.23C21.23 25.92 21.17 25.92 21.14 25.99L21.06 26.05L20.99 26.1C20.9107 26.1485 20.837 26.2055 20.77 26.27C20.77 26.27 20.77 26.27 20.77 26.32C20.77 26.37 20.82 26.32 20.85 26.32H20.91H20.96L21.13 26.22C21.1805 26.1907 21.2342 26.1672 21.29 26.15C21.3052 26.1418 21.3184 26.1304 21.3287 26.1165C21.3391 26.1027 21.3464 26.0869 21.35 26.07C21.35 26.07 21.35 26.07 21.28 26.07" fill="#002F6C"/>
<path fill-rule="evenodd" clip-rule="evenodd" d="M21.39 26.27C21.39 26.27 21.39 26.27 21.34 26.27H21.26L21.09 26.4L21.02 26.46L21.44 26.23C21.44 26.23 21.44 26.23 21.44 26.18" fill="#002F6C"/>
<path fill-rule="evenodd" clip-rule="evenodd" d="M33.1701 26.37H33.0801H32.8901C32.7701 26.37 32.6401 26.37 32.5201 26.37H32.3401C32.2802 26.3656 32.22 26.3656 32.1601 26.37C32.1601 26.37 32.0901 26.37 32.0701 26.37C32.0648 26.3809 32.062 26.3929 32.062 26.405C32.062 26.4171 32.0648 26.4291 32.0701 26.44H32.1601H32.2701C32.3531 26.4505 32.4371 26.4505 32.5201 26.44H32.6101C32.6499 26.4355 32.6902 26.4355 32.7301 26.44H33.0001H33.0701H33.1401C33.1401 26.44 33.2201 26.44 33.2401 26.38C33.2516 26.3795 33.2628 26.3761 33.2727 26.3702C33.2827 26.3643 33.2909 26.356 33.2969 26.3461C33.3028 26.3362 33.3062 26.325 33.3068 26.3134C33.3073 26.3019 33.305 26.2904 33.3001 26.28H33.2101" fill="#002F6C"/>
<path fill-rule="evenodd" clip-rule="evenodd" d="M22.9999 26.39L22.9399 26.44L22.7699 26.56H22.6999C22.6724 26.5834 22.6422 26.6035 22.6099 26.62C22.6099 26.62 22.5499 26.62 22.5299 26.68L22.4399 26.77H22.4899H22.5399L22.6199 26.72H22.6799H22.7299L22.7999 26.66" fill="#002F6C"/>
<path fill-rule="evenodd" clip-rule="evenodd" d="M29.3 26.56C29.2669 26.5654 29.2331 26.5654 29.2 26.56L29.11 26.62H29.05H29L29.06 26.56L29.12 26.51C29.12 26.51 29.12 26.51 29.07 26.51" fill="#002F6C"/>
<path fill-rule="evenodd" clip-rule="evenodd" d="M21.68 26.61H21.6H21.55V26.66C21.4585 26.7382 21.3717 26.8216 21.29 26.91L21.24 26.96H21.31H21.37L21.48 26.9H21.54L21.59 26.83C21.59 26.83 21.59 26.83 21.59 26.77" fill="#002F6C"/>
<path fill-rule="evenodd" clip-rule="evenodd" d="M23.8001 26.72L23.6601 26.78H23.5901V26.85C23.6253 26.8258 23.6588 26.7991 23.6901 26.77C23.6901 26.77 23.7801 26.77 23.7601 26.69" fill="#002F6C"/>
<path fill-rule="evenodd" clip-rule="evenodd" d="M29.43 26.8H29.37L29.2 26.85C29.2 26.85 29.2 26.85 29.2 26.91C29.1967 26.9332 29.1967 26.9568 29.2 26.98H29.26H29.36C29.36 26.98 29.41 26.98 29.43 26.93H29.48L29.55 26.88C29.6048 26.8212 29.6651 26.7676 29.73 26.72C29.6913 26.7361 29.6544 26.7562 29.62 26.78" fill="#002F6C"/>
<path fill-rule="evenodd" clip-rule="evenodd" d="M29.78 26.86L29.69 26.92H29.63H29.58H29.52H29.62H29.73L29.82 26.84L29.95 26.71V26.66V26.6C29.95 26.6 29.9 26.6 29.89 26.65" fill="#002F6C"/>
<path fill-rule="evenodd" clip-rule="evenodd" d="M16.1899 28.47H16.2899L16.3799 28.41H16.4299L16.4999 28.36L16.5799 28.29L16.7199 28.19L16.7699 28.14C16.7699 28.14 16.7699 28.08 16.8299 28.07L16.9399 27.97L17.0499 27.88L17.0999 27.82C17.127 27.8092 17.151 27.7921 17.1699 27.77L17.3799 27.58H17.3299L17.1999 27.69C17.1999 27.69 17.1499 27.69 17.1399 27.69C17.1235 27.6942 17.1063 27.6942 17.0899 27.69H17.0299H16.9699L16.8499 27.78C16.8204 27.7872 16.7895 27.7872 16.7599 27.78L16.6599 27.86L16.5699 27.92L16.4999 28L16.3399 28.18C16.3864 28.1867 16.4335 28.1867 16.4799 28.18" fill="#002F6C"/>
<path fill-rule="evenodd" clip-rule="evenodd" d="M36.1199 27.3L36.0099 27.39C35.9808 27.4141 35.954 27.4409 35.9299 27.47C35.8822 27.5012 35.8386 27.5381 35.7999 27.58L35.6799 27.68L35.5299 27.82C35.5299 27.82 35.4799 27.82 35.4699 27.87H35.4099H35.3499L35.1799 27.99C35.4199 27.99 35.6799 27.99 35.8999 28.05C35.9393 28.0602 35.9806 28.0602 36.0199 28.05L36.1199 27.96H36.1699C36.2283 27.895 36.2918 27.8348 36.3599 27.78H36.4199C36.4199 27.78 36.4799 27.78 36.4999 27.71C36.5163 27.7142 36.5335 27.7142 36.5499 27.71C36.6378 27.6384 36.7213 27.5616 36.7999 27.48C36.8251 27.4617 36.8457 27.4377 36.8599 27.41L36.9199 27.33L37.0199 27.22C37.0408 27.1882 37.0642 27.1581 37.0899 27.13V27.06C37.0947 27.0437 37.0947 27.0263 37.0899 27.01L37.0099 27.07L36.9299 27.13V27.18L36.8399 27.24L36.7699 27.29L36.6299 27.4H36.5699H36.5199L36.4399 27.47L36.3499 27.53H36.1999C36.1999 27.53 36.1999 27.48 36.1999 27.46L36.3799 27.32L36.4599 27.26L36.5399 27.19L36.5999 27.13C36.6441 27.0809 36.6908 27.0341 36.7399 26.99C36.7442 26.9736 36.7442 26.9564 36.7399 26.94L36.6399 27.02" fill="#002F6C"/>
<path fill-rule="evenodd" clip-rule="evenodd" d="M34.9999 27.3L34.8899 27.38L34.7799 27.48H34.7299L34.6599 27.54L34.5899 27.59L34.4699 27.69L34.2399 27.89C34.1879 27.942 34.1309 27.9889 34.0699 28.03L33.9899 28.1C33.9899 28.1 33.9299 28.1 33.9099 28.17V28.23C33.9463 28.2358 33.9835 28.2358 34.0199 28.23H34.1299H34.2799H34.4699H34.6699C34.7005 28.2158 34.7278 28.1954 34.7499 28.17C34.7999 28.11 34.8499 28.08 34.8899 28.03L35.0399 27.9L35.1199 27.83C35.1473 27.7975 35.1774 27.7674 35.2099 27.74C35.1122 27.8 35.038 27.8918 34.9999 28L35.0899 27.9L35.1599 27.82L35.2199 27.77C35.2422 27.7473 35.2592 27.72 35.2699 27.69C35.2699 27.69 35.2199 27.69 35.1999 27.75L35.0999 27.83C35.0622 27.8691 35.0222 27.9059 34.9799 27.94L34.8599 28.05L34.7999 28.11C34.7999 28.11 34.7999 28.11 34.7399 28.11L34.6099 28.21H34.4899H34.3899H34.1599H34.1099C34.1099 28.21 34.1099 28.21 34.1699 28.15L34.2399 28.09C34.2399 28.09 34.2399 28.09 34.3199 28.09L34.4399 27.97L34.5099 27.91L34.6899 27.73L34.7899 27.64C34.8274 27.5975 34.8675 27.5575 34.9099 27.52L34.9899 27.44C34.9899 27.44 34.9899 27.44 34.9899 27.39C35.0079 27.3619 35.0318 27.338 35.0599 27.32C35.0599 27.32 35.0599 27.32 35.1199 27.26L35.1799 27.2C35.1799 27.2 35.1799 27.2 35.1199 27.2" fill="#002F6C"/>
<path fill-rule="evenodd" clip-rule="evenodd" d="M16.9999 27.3C16.9999 27.3 16.9999 27.3 16.9299 27.3C16.9135 27.2958 16.8963 27.2958 16.8799 27.3H16.8199H16.7599L16.6899 27.35L16.5499 27.47H16.4899L16.4099 27.56L16.3499 27.62H16.2999L16.2199 27.67L16.1499 27.75C16.1499 27.75 16.1499 27.75 16.1499 27.81C16.1826 27.8194 16.2172 27.8194 16.2499 27.81H16.3799H16.4399C16.4727 27.7948 16.5004 27.7705 16.5199 27.74L16.5799 27.69C16.606 27.6659 16.6295 27.6391 16.6499 27.61C16.6499 27.61 16.6999 27.61 16.7099 27.55C16.7392 27.5094 16.7767 27.4753 16.8199 27.45C16.8526 27.3972 16.8971 27.3527 16.9499 27.32L17.0099 27.25L17.0799 27.19H17.0099" fill="#002F6C"/>
<path fill-rule="evenodd" clip-rule="evenodd" d="M27.35 27.44L27.1399 27.55L27.0499 27.6H27L26.95 27.65H27.01H27.11C27.1512 27.6221 27.1883 27.5884 27.2199 27.55C27.2612 27.5221 27.2983 27.4884 27.33 27.45C27.39 27.45 27.45 27.33 27.5 27.28H27.5499" fill="#002F6C"/>
<path fill-rule="evenodd" clip-rule="evenodd" d="M37.1899 27.44L36.9999 27.6C36.9651 27.6247 36.9346 27.6552 36.9099 27.69C36.9099 27.69 36.9099 27.76 36.9099 27.79V27.84C36.9099 27.84 36.9099 27.84 36.9099 27.9C36.9099 27.96 36.9099 27.9 36.9099 27.84L36.9799 27.78C36.9799 27.78 36.9799 27.78 36.9799 27.73C37.0067 27.6877 37.0368 27.6475 37.0699 27.61C37.0745 27.5869 37.0745 27.5631 37.0699 27.54L37.1299 27.48" fill="#002F6C"/>
<path fill-rule="evenodd" clip-rule="evenodd" d="M16.1699 27.49H16.0899L15.9999 27.6L15.9399 27.65L15.7799 27.79C15.7582 27.8184 15.731 27.8422 15.6999 27.86H15.6399L15.5699 27.91C15.5398 27.9476 15.5131 27.9878 15.4899 28.03C15.4588 28.0723 15.4351 28.1197 15.4199 28.17C15.4525 28.16 15.4873 28.16 15.5199 28.17C15.5663 28.1771 15.6135 28.1771 15.6599 28.17L15.7399 28.11V28.05C15.7778 28.0254 15.8115 27.9951 15.8399 27.96C15.8781 27.9319 15.9118 27.8982 15.9399 27.86L16.0299 27.76L16.1199 27.65V27.6C16.1816 27.5316 16.2485 27.4681 16.3199 27.41L16.1699 27.49Z" fill="#002F6C"/>
<path fill-rule="evenodd" clip-rule="evenodd" d="M37.5999 27.59H37.5399C37.5057 27.6229 37.4689 27.653 37.4299 27.68C37.4367 27.7062 37.4367 27.7338 37.4299 27.76L37.3399 27.84H36.9999C36.9999 27.84 36.8999 27.9 36.8699 27.93L36.5899 28.12L36.4399 28.23L36.3799 28.28C36.3799 28.28 36.3799 28.28 36.4599 28.28H36.5399H36.5999H36.6799L36.7999 28.18C36.7999 28.18 36.7999 28.18 36.8599 28.13H36.9099C36.9053 28.1069 36.9053 28.0831 36.9099 28.06" fill="#002F6C"/>
<path fill-rule="evenodd" clip-rule="evenodd" d="M37.2 28.59L37.36 28.49H37.41V28.44L37.49 28.35C37.49 28.35 37.55 28.3 37.56 28.27C37.56 28.27 37.56 28.27 37.56 28.2V28.15L37.48 28.23V28.28H37.4H37.34L37.23 28.37L37.15 28.43L37.07 28.49L36.91 28.59C36.8609 28.6151 36.8169 28.649 36.78 28.69C36.78 28.69 36.78 28.69 36.72 28.75C36.8569 28.7372 36.9897 28.6964 37.11 28.63" fill="#002F6C"/>
<path fill-rule="evenodd" clip-rule="evenodd" d="M27.6699 27.63C27.6099 27.63 27.5399 27.69 27.4899 27.73C27.4899 27.73 27.4899 27.73 27.4299 27.73H27.3699H27.2999L27.2299 27.79H27.1699C27.1699 27.79 27.1699 27.84 27.2199 27.84H27.2999H27.3499C27.3797 27.8346 27.4102 27.8346 27.4399 27.84C27.4399 27.84 27.4399 27.84 27.5099 27.78C27.5245 27.7552 27.5452 27.7346 27.5699 27.72L27.6699 27.63Z" fill="#002F6C"/>
<path fill-rule="evenodd" clip-rule="evenodd" d="M27.8999 27.79L27.7999 27.86H27.7499H27.6999H27.6399C27.5997 27.8972 27.5562 27.9306 27.5099 27.96C27.5099 27.96 27.4499 27.96 27.4399 28.01C27.4915 28.0345 27.545 28.0546 27.5999 28.07H27.6799H27.7399L27.8699 27.98L27.9899 27.87C28.0198 27.8358 28.0466 27.799 28.0699 27.76L27.9799 27.81" fill="#002F6C"/>
<path fill-rule="evenodd" clip-rule="evenodd" d="M36.7099 27.84L36.6299 27.9H36.5699L36.4799 27.96L36.4199 28.01C36.3986 28.0415 36.3714 28.0686 36.3399 28.09L36.2799 28.14C36.2508 28.1641 36.224 28.1909 36.1999 28.22C36.1999 28.22 36.1499 28.22 36.1399 28.29C36.1563 28.2942 36.1735 28.2942 36.1899 28.29H36.2699H36.3299C36.353 28.2845 36.3769 28.2845 36.3999 28.29C36.3999 28.29 36.3999 28.29 36.3999 28.24L36.4799 28.16C36.4799 28.16 36.4799 28.08 36.4799 28.02L36.7099 27.84Z" fill="#002F6C"/>
<path fill-rule="evenodd" clip-rule="evenodd" d="M37.52 28.75C37.6105 28.7231 37.6977 28.6862 37.78 28.64L37.87 28.56L37.93 28.5L38.01 28.39L38.09 28.29C38.09 28.29 38.09 28.29 38.09 28.24C38.09 28.19 38.09 28.24 38.01 28.24C37.93 28.24 37.95 28.29 37.92 28.32L37.83 28.41H37.78C37.7636 28.4058 37.7464 28.4058 37.73 28.41L37.64 28.47C37.564 28.529 37.4838 28.5825 37.4 28.63H37.35C37.3246 28.6522 37.3042 28.6794 37.29 28.71H37.43" fill="#002F6C"/>
<path fill-rule="evenodd" clip-rule="evenodd" d="M28.2 28H28.13H28.07L27.99 28.06L27.93 28.11C27.8825 28.1562 27.8325 28.1996 27.78 28.24V28.29C27.78 28.29 27.83 28.34 27.87 28.29C27.91 28.24 27.87 28.29 27.92 28.29C27.92 28.29 27.97 28.23 28.01 28.21C28.05 28.19 28.01 28.21 28.06 28.15L28.14 28.05L28.2 28Z" fill="#002F6C"/>
<path fill-rule="evenodd" clip-rule="evenodd" d="M28.44 28.22L28.32 28.28L28.2 28.34H28.15C28.1239 28.3641 28.1004 28.3909 28.08 28.42H28.03H27.97L28.05 28.47C28.0826 28.4794 28.1173 28.4794 28.15 28.47H28.2C28.2228 28.477 28.2472 28.477 28.27 28.47L28.33 28.4L28.38 28.34" fill="#002F6C"/>
<path fill-rule="evenodd" clip-rule="evenodd" d="M29 28.27C28.9651 28.2814 28.9339 28.3021 28.91 28.33L28.82 28.38L28.73 28.43C28.73 28.43 28.68 28.43 28.66 28.48C28.66 28.48 28.61 28.48 28.59 28.48H28.52C28.52 28.48 28.52 28.48 28.52 28.53C28.5531 28.5446 28.5889 28.5521 28.625 28.5521C28.6612 28.5521 28.6969 28.5446 28.73 28.53H28.8H28.85C28.85 28.53 28.92 28.53 28.94 28.53C28.94 28.53 28.94 28.53 28.94 28.59C28.9211 28.6121 28.8971 28.6292 28.87 28.64H28.82C28.82 28.64 28.88 28.64 28.89 28.64C28.9497 28.6494 29.0104 28.6494 29.07 28.64H29.19C29.19 28.64 29.19 28.64 29.19 28.7L29.04 28.85C29.0236 28.8458 29.0064 28.8458 28.99 28.85C29.0356 28.8646 29.0845 28.8646 29.13 28.85C29.1494 28.8431 29.1706 28.8431 29.19 28.85H29.26L29.33 28.79L29.46 28.69C29.4892 28.666 29.516 28.6392 29.54 28.61C29.5419 28.5867 29.5419 28.5633 29.54 28.54C29.54 28.54 29.54 28.54 29.49 28.54H29.41H29.34H29C29 28.54 29 28.49 29.06 28.46C29.12 28.43 29.06 28.4 29.14 28.39C29.22 28.38 29.14 28.39 29.14 28.33C29.14 28.27 29.14 28.28 29.14 28.27V28.2L29.01 28.32C28.9859 28.3491 28.9591 28.3759 28.93 28.4C28.9069 28.4046 28.8831 28.4046 28.86 28.4C28.86 28.4 28.81 28.4 28.81 28.4C28.7963 28.4079 28.7808 28.4121 28.765 28.4121C28.7492 28.4121 28.7337 28.4079 28.72 28.4C28.7118 28.3883 28.7075 28.3743 28.7075 28.36C28.7075 28.3457 28.7118 28.3317 28.72 28.32C28.72 28.32 28.72 28.32 28.72 28.27C28.7402 28.2457 28.757 28.2188 28.77 28.19C28.77 28.19 28.77 28.19 28.77 28.14C28.7889 28.1148 28.8056 28.088 28.82 28.06V27.97L29 28.27Z" fill="#002F6C"/>
<path fill-rule="evenodd" clip-rule="evenodd" d="M25.8501 26C25.8534 26.0232 25.8534 26.0468 25.8501 26.07C25.8722 26.0954 25.8995 26.1158 25.9301 26.13C25.9827 26.1424 26.0375 26.1424 26.0901 26.13L26.3601 26.02C26.3601 26.02 26.3601 26.07 26.3101 26.08L26.2601 26.13C26.2557 26.1376 26.2534 26.1462 26.2534 26.155C26.2534 26.1638 26.2557 26.1724 26.2601 26.18C26.3032 26.172 26.3441 26.155 26.3801 26.13H26.4701H26.5501C26.5255 26.1678 26.4951 26.2016 26.4601 26.23L26.3801 26.31C26.3801 26.31 26.3801 26.31 26.3801 26.37C26.3801 26.37 26.3801 26.37 26.3801 26.42C26.457 26.4704 26.5107 26.5493 26.5295 26.6393C26.5482 26.7293 26.5305 26.8231 26.4801 26.9C26.4297 26.9769 26.3508 27.0307 26.2608 27.0494C26.1708 27.0682 26.077 27.0504 26.0001 27C26.0001 27 26.0001 27.05 26.0001 27.06C26.0001 27.07 25.9301 27.06 25.8901 27.06H25.8301L25.7501 27.13H25.6901C25.6901 27.13 25.6901 27.13 25.6301 27.13C25.6301 27.13 25.6301 27.13 25.5801 27.13C25.5801 27.13 25.5801 27.13 25.5201 27.13L25.4201 27.2H25.3501H25.3001C25.3001 27.2 25.3501 27.2 25.3601 27.14C25.401 27.1156 25.4381 27.0853 25.4701 27.05L25.5601 26.96C25.5601 26.96 25.5601 26.96 25.6301 26.9L25.6801 26.85C25.6801 26.85 25.6801 26.85 25.6801 26.79H25.7301C25.7301 26.79 25.7301 26.69 25.7301 26.66L25.5601 26.76H25.5101L25.4101 26.83C25.3073 26.9057 25.2005 26.9758 25.0901 27.04C25.0901 27.04 25.0901 26.98 25.0901 26.96C25.1309 26.9142 25.1743 26.8708 25.2201 26.83L25.4101 26.63C25.4136 26.6135 25.4136 26.5965 25.4101 26.58V26.52C25.4222 26.5042 25.4288 26.4849 25.4288 26.465C25.4288 26.4451 25.4222 26.4258 25.4101 26.41C25.3363 26.4508 25.2661 26.4976 25.2001 26.55L25.0501 26.66H25.0001L25.0501 26.59L25.1001 26.51C25.1001 26.51 25.1001 26.51 25.1001 26.46C25.1001 26.46 25.0201 26.46 24.9801 26.51C24.9416 26.5256 24.8986 26.5256 24.8601 26.51H24.6501H24.5801H24.6401H24.7601H24.8101L24.9901 26.42C25.07 26.3674 25.1535 26.3206 25.2401 26.28C25.1785 26.3466 25.1309 26.4248 25.1001 26.51H25.1501H25.2101L25.3501 26.44L25.4401 26.39" fill="#002F6C"/>
<path fill-rule="evenodd" clip-rule="evenodd" d="M26.6 26.8C26.587 26.8288 26.5702 26.8557 26.55 26.88L26.49 26.95L26.44 27.01C26.4134 27.022 26.392 27.0434 26.38 27.07L26.33 27.12C26.33 27.12 26.28 27.12 26.27 27.18C26.26 27.24 26.27 27.18 26.2 27.18L26.15 27.24H26.1H26.04H25.97L25.88 27.29C25.83 27.29 25.81 27.29 25.76 27.35L25.9 27.22L26.01 27.1C26.0317 27.0848 26.0489 27.0641 26.06 27.04H26.11L26.19 26.99L26.36 26.89" fill="#002F6C"/>
<path fill-rule="evenodd" clip-rule="evenodd" d="M19.7299 26.86L19.6099 26.95H19.5599L19.4899 27.02H18.9999C18.9803 27.0256 18.9596 27.0256 18.9399 27.02L18.9899 26.96L19.0499 26.91C19.0499 26.91 19.1099 26.84 19.1499 26.82H19.1999C19.227 26.8092 19.251 26.7921 19.2699 26.77L19.5099 26.65" fill="#002F6C"/>
<path fill-rule="evenodd" clip-rule="evenodd" d="M18.5101 27L18.3901 27.12L18.2201 27.3L18.1601 27.36L18.1001 27.42C18.0567 27.4451 18.0192 27.4792 17.9901 27.52V27.57L17.8501 27.67L17.7701 27.74L17.7001 27.79H17.6401H17.5801L17.5201 27.86C17.5201 27.86 17.4501 27.86 17.4401 27.93C17.4331 27.9422 17.4294 27.956 17.4294 27.97C17.4294 27.984 17.4331 27.9978 17.4401 28.01C17.4627 28.0184 17.4875 28.0184 17.5101 28.01H17.5801L17.7001 27.92L17.7901 27.84H17.8501L17.9401 27.76L18.0401 27.68L18.1001 27.61L18.2101 27.51L18.3001 27.43H18.3801H18.4301H18.4801C18.5193 27.3944 18.563 27.3641 18.6101 27.34L18.4601 27.5C18.4262 27.5227 18.3987 27.5537 18.3801 27.59C18.3373 27.6117 18.2998 27.6424 18.2701 27.68L18.1801 27.75C18.1143 27.829 18.0541 27.9125 18.0001 28L17.9201 28.06L17.8601 28.11C17.8437 28.1058 17.8265 28.1058 17.8101 28.11H17.7501C17.7227 28.1425 17.6926 28.1726 17.6601 28.2C17.6184 28.2351 17.5814 28.2754 17.5501 28.32H17.5001H17.4501H17.1001H16.3701C16.3701 28.32 16.3701 28.32 16.4301 28.32H16.5001H16.5801L16.6301 28.27C16.6301 28.27 16.6801 28.21 16.7201 28.2L17.0001 27.95L17.1101 27.86H17.1701C17.1701 27.86 17.2201 27.86 17.2401 27.8C17.2591 27.7779 17.2831 27.7608 17.3101 27.75L17.3901 27.68C17.3901 27.68 17.3901 27.68 17.3901 27.63L17.4501 27.58H17.5001C17.5001 27.58 17.5001 27.58 17.5501 27.58C17.6001 27.58 17.5501 27.58 17.6101 27.58" fill="#002F6C"/>
<path fill-rule="evenodd" clip-rule="evenodd" d="M33.92 27.65C33.9395 27.6439 33.9604 27.6439 33.98 27.65L34.06 27.59C34.0877 27.5805 34.112 27.5631 34.13 27.54L34.27 27.44C34.27 27.44 34.27 27.39 34.35 27.39C34.3176 27.4282 34.2875 27.4682 34.26 27.51L34.18 27.6C34.18 27.6 34.18 27.65 34.12 27.68C34.1005 27.6731 34.0794 27.6731 34.06 27.68L33.97 27.75C33.947 27.7445 33.923 27.7445 33.9 27.75C33.9 27.75 33.9 27.75 33.83 27.75H33.71" fill="#002F6C"/>
<path fill-rule="evenodd" clip-rule="evenodd" d="M15.25 27.76H15.19C15.19 27.76 15.19 27.76 15.14 27.81L15.07 27.87L14.92 28H14.86H14.8V28.2H14.86L14.92 28.14V28.08L15 28V27.95" fill="#002F6C"/>
<path fill-rule="evenodd" clip-rule="evenodd" d="M39.1401 28.38H39.0901H39.0301L38.9301 28.44H38.8701H38.8201C38.8132 28.4594 38.8132 28.4806 38.8201 28.5C38.8465 28.4951 38.8736 28.4951 38.9001 28.5H38.9501C38.9501 28.5 38.9501 28.5 39.0101 28.5C39.0212 28.5047 39.0331 28.5071 39.0451 28.5071C39.0571 28.5071 39.069 28.5047 39.0801 28.5C39.1193 28.4644 39.163 28.4341 39.2101 28.41L39.1401 28.38Z" fill="#002F6C"/>
<path fill-rule="evenodd" clip-rule="evenodd" d="M39.1399 27.86L39.0299 27.94L38.7699 28.14L38.4699 28.35L38.3999 28.4L38.2899 28.47C38.2618 28.488 38.2379 28.5119 38.2199 28.54V28.6H38.1599C38.1599 28.6 38.1599 28.6 38.1599 28.67C38.1599 28.74 38.1599 28.67 38.2299 28.67H38.3099C38.389 28.651 38.4661 28.6242 38.5399 28.59C38.5399 28.54 38.6099 28.52 38.6499 28.49L38.7199 28.42C38.7363 28.4158 38.7535 28.4158 38.7699 28.42H38.8199C38.8899 28.36 38.9499 28.29 39.0099 28.23C39.0373 28.1975 39.0674 28.1674 39.0999 28.14C39.0999 28.14 39.0999 28.14 39.1499 28.09L39.1399 27.86Z" fill="#002F6C"/>
<path d="M139.38 35.18H132.49L130.38 30.1H118.89L117 35.18H110.22L120.55 9.49H128L139.38 35.18ZM124.38 15.63L120.62 25.63H128.53L124.38 15.63Z" fill="white"/>
<path d="M148.61 9.5H142.21V35.19H148.61V9.5Z" fill="white"/>
<path d="M165.45 9.5C174.83 9.5 179.65 15.33 179.65 22.38C179.65 29.76 174.98 35.18 164.73 35.18H154.11V9.5H165.45ZM160.52 30.5H164.7C171.14 30.5 173.06 26.13 173.06 22.36C173.06 17.95 170.69 14.22 164.62 14.22H160.52V30.5Z" fill="white"/>
<path d="M14.6399 38.74C14.743 39.3461 14.9749 39.9231 15.3199 40.432C15.6649 40.9409 16.115 41.3699 16.6399 41.69V38.74H14.6399Z" fill="#BA0C2F"/>
<path d="M17.76 38.74H20.57V43.3C19.5985 43.0741 18.6558 42.7386 17.76 42.3V38.74Z" fill="#BA0C2F"/>
<path d="M21.6399 38.74V43.52C21.6399 43.52 22.6399 43.69 22.7999 43.7C23.3627 43.7573 23.9166 43.8815 24.4499 44.07V38.74H21.6399Z" fill="#BA0C2F"/>
<path d="M39.1799 38.74C39.0768 39.3461 38.845 39.9231 38.5 40.432C38.1549 40.9409 37.7048 41.3699 37.1799 41.69V38.74H39.1799Z" fill="#BA0C2F"/>
<path d="M36.06 38.74H33.25V43.3C34.2215 43.0741 35.1642 42.7386 36.06 42.3V38.74Z" fill="#BA0C2F"/>
<path d="M32.2199 38.74V43.52C32.2199 43.52 31.2199 43.69 31.0599 43.7C30.4972 43.7573 29.9432 43.8815 29.4099 44.07V38.74H32.2199Z" fill="#BA0C2F"/>
<path d="M26.9301 45.85C26.5977 45.3031 26.1291 44.8517 25.5701 44.54V38.74H28.3001V44.54C27.7393 44.8529 27.2677 45.3038 26.9301 45.85Z" fill="#BA0C2F"/>
<path d="M17.1101 35.94H18.0701V35.95L17.3001 36.52L17.6001 37.43L17.5901 37.44L16.8301 36.87L16.0701 37.44L16.0601 37.43L16.3701 36.52L15.5901 35.95V35.94H16.5401L16.8301 35.04H16.8401L17.1101 35.94Z" fill="white"/>
<path d="M20.5 35.94H21.45V35.95L20.68 36.52L20.98 37.43V37.44L20.21 36.87L19.45 37.44V37.43L19.75 36.52L18.97 35.95V35.94H19.92L20.21 35.04H20.22L20.5 35.94Z" fill="white"/>
<path d="M23.8801 35.94H24.8401V35.95L24.0701 36.52L24.3601 37.43V37.44L23.6001 36.87L22.8301 37.44V37.43L23.1301 36.52L22.3501 35.95V35.94H23.3101L23.5901 35.04H23.6001L23.8801 35.94Z" fill="white"/>
<path d="M27.26 35.94H28.22V35.95L27.45 36.52L27.75 37.43L27.74 37.44L26.98 36.87L26.22 37.44L26.21 37.43L26.51 36.52L25.73 35.95V35.94H26.69L26.98 35.04L27.26 35.94Z" fill="white"/>
<path d="M30.6401 35.94H31.6001V35.95L30.8301 36.52L31.1301 37.43L31.1201 37.44L30.3601 36.87L29.6001 37.44L29.5901 37.43L29.8901 36.52L29.1101 35.95V35.94H30.0701L30.3601 35.04L30.6401 35.94Z" fill="white"/>
<path d="M34.02 35.94H34.98V35.95L34.21 36.52L34.51 37.43L34.5 37.44L33.74 36.87L32.98 37.44L32.97 37.43L33.27 36.52L32.5 35.95V35.94H33.45L33.74 35.04L34.02 35.94Z" fill="white"/>
<path d="M37.4099 35.94H38.3699V35.95L37.5899 36.52L37.8899 37.43V37.44L37.1199 36.87L36.3599 37.44L36.3499 37.43L36.6599 36.52L35.8799 35.95V35.94H36.8299L37.1199 35.04H37.1299L37.4099 35.94Z" fill="white"/>
<path d="M21.3401 13.6V15.89C21.3401 17.23 20.4301 17.69 19.3401 17.69C18.2501 17.69 17.3401 17.14 17.3401 15.89V13.6H18.3401V15.92C18.3366 16.0491 18.3607 16.1775 18.4107 16.2967C18.4607 16.4158 18.5354 16.5229 18.63 16.6109C18.7246 16.6988 18.8369 16.7657 18.9593 16.8069C19.0817 16.8481 19.2115 16.8628 19.3401 16.85C19.4741 16.8605 19.6088 16.8419 19.7349 16.7954C19.861 16.7488 19.9755 16.6755 20.0706 16.5805C20.1656 16.4854 20.2389 16.3709 20.2854 16.2448C20.332 16.1187 20.3506 15.984 20.3401 15.85V13.6H21.3401Z" fill="white"/>
<path d="M24.92 14.64C24.5245 14.4285 24.0878 14.3057 23.64 14.28C23.28 14.28 23.05 14.41 23.05 14.62C23.05 15.22 25.11 15.05 25.11 16.46C25.11 17.24 24.45 17.69 23.55 17.69C23.0401 17.6949 22.5386 17.5601 22.1 17.3V16.43C22.4927 16.7463 22.9763 16.9285 23.48 16.95C23.86 16.95 24.07 16.81 24.07 16.57C24.07 15.91 22.02 16.15 22.02 14.7C22.02 14 22.62 13.54 23.55 13.54C24.0243 13.5476 24.4915 13.6567 24.92 13.86V14.64Z" fill="white"/>
<path d="M29.9401 17.63H28.8601L28.5301 16.83H26.7201L26.4201 17.63H25.3501L26.9801 13.63H28.1501L29.9401 17.63ZM27.5801 14.56L27.0001 16.13H28.2401L27.5801 14.56Z" fill="white"/>
<path d="M31.4499 13.6H30.4399V17.64H31.4499V13.6Z" fill="white"/>
<path d="M34.1601 13.6C34.4414 13.5674 34.7264 13.595 34.9963 13.6808C35.2661 13.7666 35.5147 13.9087 35.7255 14.0978C35.9363 14.2869 36.1046 14.5186 36.2192 14.7775C36.3337 15.0365 36.392 15.3168 36.3901 15.6C36.3901 16.76 35.6501 17.6 34.0401 17.6H32.3701V13.6H34.1601ZM33.3801 16.89H34.0001C34.1731 16.908 34.348 16.8878 34.5124 16.831C34.6768 16.7741 34.8267 16.6819 34.9516 16.5608C35.0765 16.4397 35.1733 16.2927 35.2352 16.1302C35.2972 15.9676 35.3227 15.7935 35.3101 15.62C35.3261 15.4453 35.303 15.2692 35.2424 15.1046C35.1818 14.9399 35.0852 14.7909 34.9597 14.6683C34.8342 14.5457 34.683 14.4526 34.517 14.3958C34.351 14.339 34.1744 14.3199 34.0001 14.34H33.3501L33.3801 16.89Z" fill="white"/>
</g>
<defs>
<clipPath id="clip0_402_35">
<rect width="179.65" height="53.73" fill="white"/>
</clipPath>
</defs>
</svg>
